<svg class="shape shape-1" xmlns="http://www.w3.org/2000/svg" viewBox="0 0 2834.323 701.179">
  <g>
    <path d="M0,544C105,544-2,34.025,171.019,34.025c168.882,0,106.887,480.991,235.152,528.022v.179C534.435,609.256,483.13,275.769,560.088,288.6s51.306,61.995,117.576,61.995S741.8,0,838,0s23.515,354.865,205.223,429.686-10.689-275.769,181.708-224.463C1313.828,228.93,1312,544,1417,544s-2-509.975,171.019-509.975c168.882,0,106.887,480.991,235.152,528.022v.179c128.264,47.03,76.959-286.457,153.917-273.631s51.306,61.995,117.576,61.995S2158.8,0,2255,0s23.515,354.865,205.223,429.686-10.689-275.769,181.708-224.463C2730.828,228.93,2729,544,2834,544l.323,157.179H.323Z"/>
  </g>
</svg>
