<svg class="shape shape-3" xmlns="http://www.w3.org/2000/svg" viewBox="0 0 1417.323 1266.552">
  <g>
    <path d="M16.891,484.742c23.291-99.615,80-196.19,170.548-243.8,28.967-15.231,61.582-25.214,94.2-22.583,59.046,4.762,108.805,49.262,167.633,56.226,54.688,6.473,108.242-20.83,150.431-56.225s76.644-79.2,118.325-115.189c107.906-93.175,264.235-126.792,400.9-86.213s249.321,154.063,288.9,291.027c15.063,52.135,16.154,117.246-26.4,150.929-20.03,15.855-46.209,21.487-71.6,24.319-70.28,7.84-142.591-2.09-211.225,14.942-28.69,7.119-58.377,20.823-71.887,47.115-22.716,44.208,10.893,95.92,45.544,131.552,64.261,66.079,139.1,122.73,192.784,197.653s83.337,176.555,43.8,259.821c-25.684,54.1-77.483,92.782-134.043,112.463S1057.064,1268.864,997.3,1265c-81.214-5.246-162.836-22.159-234.6-60.532s-133.162-99.759-161.17-176.171c-21.352-58.254-22.671-122.015-40.439-181.46a340.463,340.463,0,0,0-68.659-125.011c-13.558-15.646-29.574-30.634-49.68-35.569-39.11-9.6-76.789,22.233-96.78,57.19s-30.737,75.681-57.43,105.833C236.775,907.752,146.7,906.246,68.855,900.116c-11.909-.938-24.215-1.989-34.726-7.665C-5.587,871,4.04,768.371,2.067,728.02-1.9,646.836-1.712,564.306,16.891,484.742Z"/>
  </g>
</svg>
