<svg class="shape shape-2" xmlns="http://www.w3.org/2000/svg" viewBox="0 0 2835.5 505.613">
  <g>
    <path d="M.5,0,0,129c71,0,61,228.942,142.41,228.942,117.174,0,70.625-195.825,205.455-150.881s64.2,298.552,234.348,298.552S617.526,30.5,832.612,30.5c367.573,0-165.327,452.645,216.692,438.2C1250.773,461.077,1346,129,1417,129h1c71,0,61,228.942,142.41,228.942,117.174,0,70.625-195.825,205.455-150.881s64.2,298.552,234.348,298.552S2035.526,30.5,2250.612,30.5c367.573,0-165.327,452.645,216.692,438.2C2668.773,461.077,2764,129,2835,129l.5-129Z"/>
  </g>
</svg>
