<svg class="shape shape-4" xmlns="http://www.w3.org/2000/svg" viewBox="0 0 1297.386 1304.05">
  <g>
    <path d="M145.156,404.059c-54.211,15.909-112.666,40.35-136.013,91.8C-8.417,534.554-.121,583.538,29.2,614.3c20.429,21.429,48.586,33.4,72.943,50.236s46.625,42.686,44.415,72.209c-3.03,40.479-47.051,62.312-75.866,90.9C37.919,860.159,22.6,907.526,22.545,953.693s13.942,91.374,33.032,133.41c36.224,79.765,93.9,152.807,172.688,191.1s180.271,35.888,248.031-19.638c61.939-50.756,86.128-134,98.492-213.119,10.607-67.871,19.567-145.077,74.8-185.923,40.295-29.8,96.378-30.954,143.767-14.646,36.884,12.693,69.92,34.731,106.462,48.376,110.01,41.079,241.614-3.9,316.427-94.417s96.031-218.069,71.31-332.867c-18.281-84.9-59.151-162.985-100.131-239.552-22.984-42.943-46.868-86.721-83.224-119.133-33.743-30.082-76.091-48.44-117.9-65.628C932.223,19.424,875.752-2.043,817.329.156c-31.591,1.189-64.443,10.329-86.4,33.073-26.658,27.612-32.16,69.62-28.543,107.83,5.42,57.247,27.8,111.42,52.05,163.561,7.757,16.681,15.935,34.4,13.764,52.674-6.314,53.072-78.83,14.469-110.315,9.989a1218.935,1218.935,0,0,0-512.729,36.776Z"/>
  </g>
</svg>
