<svg xmlns="http://www.w3.org/2000/svg"><symbol viewBox="0 0 724 724" id="circles"><g id="circles-Artboard" stroke="#0D3D91" stroke-width="2" fill-rule="evenodd"><circle id="circles-Oval_47" cx="361.989" cy="361.989" r="353.989"/><circle id="circles-Oval_46" cx="363" cy="362" r="347"/><circle id="circles-Oval_45" cx="363" cy="362" r="339"/><circle id="circles-Oval_44" cx="362.989" cy="361.989" r="331.989"/><circle id="circles-Oval_43" cx="364" cy="362" r="325"/><circle id="circles-Oval_42" cx="364" cy="362" r="317"/><circle id="circles-Oval_41" cx="363.988" cy="361.988" r="309.988"/><circle id="circles-Oval_48" cx="362" cy="362" r="361"/><circle id="circles-Oval_40" cx="365" cy="362" r="303"/><circle id="circles-Oval_39" cx="364.988" cy="361.988" r="295.988"/><circle id="circles-Oval_38" cx="365.999" cy="361.999" r="288.999"/><circle id="circles-Oval_37" cx="366.001" cy="362.001" r="281.001"/><circle id="circles-Oval_36" cx="365.986" cy="361.986" r="273.986"/><circle id="circles-Oval_35" cx="367" cy="362" r="267"/><circle id="circles-Oval_34" cx="366.986" cy="361.986" r="259.986"/><circle id="circles-Oval_33" cx="367.999" cy="361.999" r="252.999"/><circle id="circles-Oval_32" cx="368.001" cy="362.001" r="245.001"/><circle id="circles-Oval_31" cx="367.984" cy="361.984" r="237.984"/><circle id="circles-Oval_30" cx="369" cy="362" r="231"/><circle id="circles-Oval_29" cx="369" cy="362" r="223"/><circle id="circles-Oval_28" cx="368.983" cy="361.983" r="215.983"/><circle id="circles-Oval_27" cx="369.999" cy="361.999" r="208.999"/><circle id="circles-Oval_26" cx="370.001" cy="362.001" r="201.001"/><circle id="circles-Oval_25" cx="369.98" cy="361.98" r="193.98"/><circle id="circles-Oval_24" cx="370.999" cy="361.999" r="186.999"/><circle id="circles-Oval_23" cx="371" cy="362" r="179"/><circle id="circles-Oval_22" cx="370.979" cy="361.979" r="171.979"/><circle id="circles-Oval_21" cx="371.999" cy="361.999" r="164.999"/><circle id="circles-Oval_20" cx="371.978" cy="361.978" r="157.978"/><circle id="circles-Oval_19" cx="372.997" cy="361.997" r="150.997"/><circle id="circles-Oval_18" cx="373.003" cy="362.003" r="143.003"/><circle id="circles-Oval_17" cx="372.971" cy="361.971" r="135.971"/><circle id="circles-Oval_16" cx="374" cy="362" r="129"/><circle id="circles-Oval_15" cx="374" cy="362" r="121"/><circle id="circles-Oval_14" cx="374" cy="362" r="113"/><circle id="circles-Oval_13" cx="374" cy="362" r="105"/><circle id="circles-Oval_12" cx="374" cy="362" r="97"/><circle id="circles-Oval_11" cx="374" cy="362" r="89"/><circle id="circles-Oval_10" cx="374" cy="362" r="81"/><circle id="circles-Oval_9" cx="374" cy="362" r="73"/><circle id="circles-Oval_8" cx="374" cy="362" r="65"/><circle id="circles-Oval_7" cx="374" cy="362" r="57"/><circle id="circles-Oval_6" cx="374" cy="362" r="49"/><circle id="circles-Oval_5" cx="374" cy="362" r="41"/><circle id="circles-Oval_4" cx="374" cy="362" r="33"/><circle id="circles-Oval_3" cx="374" cy="362" r="25"/><circle id="circles-Oval_2" cx="374" cy="362" r="17"/><circle id="circles-Oval_1" cx="374" cy="362" r="9"/></g></symbol><symbol viewBox="0 0 60 47" id="curved-line"><path fill-rule="evenodd" d="M414.354 738.019c2.922.109 6.897-.14 11.552-1.045 7.094-1.379 14.113-4.007 20.676-8.185 11.645-7.413 20.758-18.998 26.365-35.467a1 1 0 0 0-1.894-.644c-5.46 16.037-14.283 27.255-25.545 34.424-6.338 4.034-13.123 6.575-19.984 7.909-4.494.873-8.318 1.113-11.095 1.009a12.038 12.038 0 0 1-.358-.017 1 1 0 0 0-.142 1.994c.078.006.22.014.425.022z" transform="translate(-413 -692)"/></symbol><symbol viewBox="0 0 32 32" id="icon-at"><path d="M22.3 19.3c-.3.4-.3.6-.3 1s-.2.6-.2.8 0 .4.2.6c.2.2.4.2.6.2.6 0 1.3-.2 1.9-.6.6-.4 1.3-1.1 1.7-1.9.4-.8.8-1.7 1.3-3 .4-1.1.4-2.3.4-3.6 0-1.5-.2-3-.8-4.2s-1.5-2.3-2.5-3.2-2.3-1.4-3.6-2c-1.3-.4-2.8-.6-4.5-.6-1.9 0-3.4.4-4.9 1.1S8.9 5.3 7.8 6.6s-1.9 2.5-2.5 4c-.6 1.5-.8 3.2-.8 5.1 0 2.1.4 4 1.1 5.5.6 1.7 1.5 3.2 2.5 4.2 1.1 1.1 2.5 2.1 4 2.8s3.2 1.1 4.9 1.1c1.9 0 3.6-.4 5.3-1.1s3.2-1.7 4.2-3.2h3c-1.3 2.1-3.2 3.8-5.3 5.1-2.4 1.3-4.7 1.9-7.2 1.9-2.1 0-4.2-.4-6.1-1.3-1.9-.8-3.6-1.9-5.1-3.4-1.5-1.5-2.5-3.2-3.4-5.1s-1.1-4.5-1.1-7c0-2.1.4-4.2 1.3-5.9.8-1.9 1.9-3.4 3.4-4.9 1.5-1.5 3-2.5 4.9-3.2C12.7.4 14.6 0 16.7 0c1.9 0 3.6.2 5.3.8s3.2 1.5 4.5 2.5c1.3 1.1 2.3 2.3 3.2 4 .8 1.5 1.1 3.2 1.1 5.1 0 2.1-.4 4-1.1 5.5-.6 1.5-1.7 3-2.5 4-1.1 1.1-2.1 1.9-3.2 2.3-1.1.4-2.1.8-3 .8-.6 0-1.3-.2-1.7-.6-.4-.4-.8-1.1-.8-1.9-.6.6-1.3 1.3-2.1 1.7-.8.4-1.7.6-2.5.6s-1.7-.2-2.5-.4c-.8-.4-1.5-.8-1.9-1.5-.6-.6-1.1-1.3-1.3-2.1-.2-.8-.4-1.7-.4-2.5 0-1.3.2-2.8.6-4 .4-1.3 1.1-2.5 1.9-3.6.8-1.1 1.7-1.9 3-2.5 1.1-.6 2.3-1.1 3.8-1.1 1.1 0 1.9.2 2.8.6.8.4 1.5 1.3 2.1 2.3l.8-2.3h3l-3.5 11.6zm-7.9 2.5c.8 0 1.7-.2 2.3-.8.6-.4 1.3-1.1 1.9-1.9.4-.8.8-1.5 1.3-2.5s.4-1.7.4-2.5c0-.4 0-1.1-.2-1.5s-.4-.8-.6-1.3c-.2-.4-.6-.6-1.1-.8-.4-.2-.8-.2-1.3-.2-.8 0-1.7.2-2.3.6-.6.4-1.3 1.1-1.9 1.7-.4.6-.8 1.5-1.3 2.3-.2.8-.4 1.7-.4 2.5 0 1.1.2 2.1.8 2.8.7.6 1.4 1.6 2.4 1.6z"/></symbol><symbol viewBox="0 0 48 48" id="icon-eye"><g id="icon-eye-icon-eye" stroke="none" stroke-width="1" fill-rule="evenodd"><path d="M46.916 23.051l.454.946-.454.945c-4.75 9.897-13.578 16.043-23.04 16.043-9.46 0-18.29-6.147-23.038-16.043l-.455-.945.455-.946c4.75-9.898 13.577-16.045 23.039-16.045 9.461 0 18.29 6.148 23.039 16.045zm-23.04 13.771c7.68 0 14.906-4.887 19.073-12.824-4.167-7.937-11.392-12.824-19.072-12.824S8.972 16.06 4.806 23.998c4.166 7.937 11.39 12.824 19.07 12.824zm0-6.324c-3.379 0-6.119-2.911-6.119-6.502 0-3.591 2.74-6.502 6.12-6.502s6.12 2.911 6.12 6.502c0 3.591-2.74 6.502-6.12 6.502z" id="icon-eye-Shape" fill-rule="nonzero"/></g></symbol><symbol viewBox="0 0 32 32" id="icon-facebook"><path d="M22.9 16h-4.5v16h-6.6V16H8.6v-5.6h3.2V6.7C11.7 4.1 13 0 18.4 0h4.9v5.5h-3.6c-.6 0-1.4.3-1.4 1.5v3.3h5.1l-.5 5.7z"/></symbol><symbol viewBox="0 0 32 32" id="icon-itunes"><path d="M28.5 0L10.9 4.8v20.1c-.6-.5-1.6-.8-2.7-.8-1.9 0-4.8 1.3-4.8 4s2.7 4 4.8 4c3.6 0 4.6-2.9 4.6-3.5V11.4l13.9-3.8v14.1s-1.3-1-3-1c-2.9 0-4.8 1.9-4.8 4 0 2.9 2.9 4 4.8 4 2.5 0 4.8-1.7 4.8-4V0z"/></symbol><symbol viewBox="0 0 24 24" id="icon-overflow"><g id="icon-overflow-overflow-x" stroke="none" stroke-width="1" fill-rule="evenodd"><path d="M19 14a2 2 0 1 1 0-4 2 2 0 0 1 0 4zM5 14a2 2 0 1 1 0-4 2 2 0 0 1 0 4zm7 0a2 2 0 1 1 0-4 2 2 0 0 1 0 4z" id="icon-overflow-icon" fill-rule="nonzero"/></g></symbol><symbol viewBox="0 0 36 36" id="icon-rss"><path d="M4 13.7c-1.5 0-2.7 1.2-2.7 2.7C1.3 17.8 2.5 19 4 19c7.1 0 13 5.8 12.9 13 0 1.5 1.2 2.7 2.7 2.7 1.5 0 2.7-1.2 2.7-2.7 0-10.1-8.2-18.3-18.3-18.3z"/><path d="M4 0C2.6 0 1.4 1.2 1.4 2.7c0 1.5 1.2 2.7 2.7 2.7 14.7 0 26.6 12 26.6 26.7 0 1.5 1.2 2.7 2.7 2.7 1.5 0 2.7-1.2 2.7-2.7C36 14.4 21.7 0 4 0z"/><ellipse cx="4.7" cy="31.3" rx="4.7" ry="4.7"/></symbol><symbol viewBox="0 0 32 32" id="icon-soundcloud"><path d="M0 21.7c0 .4.1.7.4.9.3.2.6.3.9.2.3-.1.5-.2.6-.3.1-.2.2-.4.2-.8v-4.3c0-.3-.1-.6-.3-.8-.2-.2-.5-.3-.8-.3-.3 0-.6.1-.8.3-.1.2-.2.5-.2.8v4.3zm3.4 1.8c0 .3.1.5.3.6.2.1.5.2.8.2.3 0 .6-.1.8-.2.2-.1.3-.4.3-.6v-10c0-.3-.1-.6-.3-.8-.2-.2-.5-.3-.8-.3-.3 0-.6.1-.8.3-.2.2-.3.5-.3.8v10zm3.4.5c0 .3.1.5.3.6.2.1.5.2.8.2.3 0 .6-.1.8-.2.2-.1.3-.3.3-.6v-9.2c0-.3-.1-.6-.3-.8-.2-.2-.5-.3-.8-.3-.3 0-.6.1-.8.3-.2.2-.3.5-.3.8V24zm3.5.1c0 .5.4.8 1.1.8.7 0 1.1-.3 1.1-.8V9.2c0-.8-.3-1.3-.8-1.4-.3-.1-.7 0-1 .3-.3.3-.5.6-.5 1.1l.1 14.9zm3.4.4V8.3c0-.5.2-.8.5-.9.7-.2 1.3-.2 2-.2 1.5 0 2.9.4 4.2 1.1 1.3.7 2.4 1.7 3.2 2.9.8 1.2 1.3 2.6 1.4 4.1.6-.3 1.3-.4 1.9-.4 1.4 0 2.6.5 3.6 1.5s1.5 2.2 1.5 3.5c0 1.4-.5 2.6-1.5 3.6S28.3 25 26.9 25h-13c-.1 0-.2-.1-.2-.2.1-.2 0-.3 0-.3z"/></symbol><symbol viewBox="0 0 32 32" id="icon-stitcher"><path d="M23.2 8.8c-.7-.9-1.4-1.4-2.5-2-1.1-.5-2-.7-3.1-.7-.5 0-1.1 0-1.4.2-.5 0-.9.2-1.4.5-.4.2-.8.6-1.1.9-.4.4-.4.9-.4 1.4 0 .5.2.9.4 1.3s.5.7.9.9c.4.2.9.5 1.4.7.5.2 1.3.4 2 .7 1.1.4 2.2.7 3.2 1.1 1.1.4 2.2.9 3.1 1.6.9.7 1.6 1.6 2.3 2.5.5 1.1.9 2.3.9 3.8 0 1.8-.4 3.2-.9 4.7-.7 1.3-1.6 2.3-2.7 3.2-1.1.9-2.3 1.4-3.8 1.8-1.4.4-2.9.5-4.3.5-2.2 0-4.3-.4-6.5-1.1-2-.7-3.8-1.8-5.2-3.2l4.9-5c.7.9 1.8 1.6 3.1 2.3 1.3.5 2.5.9 3.6.9.5 0 1.1 0 1.6-.2s.9-.4 1.4-.5c.4-.2.7-.5.9-1.1.2-.4.4-.9.4-1.6 0-.5-.2-1.1-.4-1.4-.4-.4-.7-.7-1.3-1.1-.5-.4-1.3-.7-2-.9-.7-.4-1.6-.5-2.7-.9-.9-.4-2-.7-2.9-1.1-.8-.3-1.7-1-2.4-1.5-.7-.8-1.3-1.5-1.8-2.6-.6-.9-.7-2.1-.7-3.6 0-1.8.4-3.2 1.1-4.3.7-1.2 1.5-2.1 2.6-3 1.1-.7 2.3-1.4 3.8-1.8 1.6 0 3.1-.2 4.5-.2 1.8 0 3.6.4 5.4.9 1.8.7 3.4 1.6 4.7 2.9l-4.7 5z"/></symbol><symbol viewBox="0 0 32 32" id="icon-twitter"><path d="M27.9 9.9v.8c0 8.1-6.2 17.5-17.5 17.5-3.5 0-6.7-1-9.4-2.8.5.1 1 .1 1.5.1 2.9 0 5.5-1 7.6-2.6-2.7-.1-5-1.8-5.7-4.3.4.1.8.1 1.2.1.6 0 1.1-.1 1.6-.2-2.8-.6-4.9-3.1-4.9-6v-.1c.7.4 1.7.7 2.7.8-1.7-1.2-2.7-3-2.7-5.2 0-1.1.3-2.2.8-3.1 3 3.7 7.6 6.2 12.7 6.4-.1-.4-.2-.9-.2-1.4 0-3.4 2.8-6.2 6.2-6.2 1.8 0 3.4.7 4.5 1.9 1.4-.1 2.7-.6 3.9-1.3-.5 1.4-1.4 2.6-2.7 3.4 1.2-.1 2.4-.5 3.5-1-.8 1.2-1.9 2.3-3.1 3.2z"/></symbol><symbol viewBox="0 0 60 60" id="logo-fc"><path d="M56 15C47.7.7 29.3-4.3 15 4S-4.3 30.7 4 45s26.6 19.3 41 11c14.3-8.3 19.3-26.6 11-41zM11 32.6H8.3V17h11.6v2.5H11v4.2h7.8v2.5H11v6.4zm6.2 11.2L15.8 42l12.1-9.5-6.6-1.6 17.1-14.4 1.5 1.8-13.6 11.4 6.8 1.7-15.9 12.4zm28.2-1.7c-4.5 0-7.9-3.5-7.9-8 0-4.4 3.3-8 8-8 2.9 0 4.6 1 6.1 2.4l-1.8 2c-1.2-1.2-2.6-1.9-4.4-1.9-3 0-5.1 2.4-5.1 5.5 0 3 2.2 5.5 5.1 5.5 1.9 0 3.1-.8 4.5-2l1.8 1.8c-1.6 1.6-3.4 2.7-6.3 2.7z"/></symbol><symbol viewBox="0 0 100 138" id="logo-fct"><path d="M92.2 77.1l2.1-3.6c3.6-7 5.7-14.9 5.7-23.3 0-27-21.3-49-47.9-50.1V0h-4.2v.1C21.3 1.2 0 23.2 0 50.2c0 8.4 2.1 16.3 5.7 23.3l2.1 3.6c5.3 8.4 13.1 15.1 22.2 19.1H0V138h100V96.2H70c9.2-4 16.9-10.7 22.2-19.1zm-9.8-59.4c8.7 8.7 13.4 20.2 13.4 32.5 0 7.5-1.8 14.7-5.1 21.2L52.1 49V4.2c11.4.5 22.1 5.3 30.3 13.5zM4.2 50.2c0-12.3 4.8-23.8 13.4-32.5 8.2-8.2 18.9-13 30.3-13.5V49L9.3 71.4c-3.4-6.5-5.1-13.7-5.1-21.2zm13.4 32.5c-2.4-2.4-4.4-5-6.2-7.7L50 52.6 88.6 75c-1.8 2.8-3.8 5.4-6.2 7.7-8.6 8.7-20.2 13.5-32.4 13.5s-23.7-4.8-32.4-13.5zm78.2 17.7v33.5H4.2v-33.5h91.6z"/><path d="M73.6 51c4.9 0 7.9-1.8 10.6-4.7l-3-3c-2.3 2.1-4.3 3.4-7.5 3.4-5 0-8.7-4.2-8.7-9.4v-.1c0-5.2 3.6-9.3 8.7-9.3 3 0 5.2 1.3 7.3 3.3l3-3.4c-2.5-2.4-5.4-4.1-10.3-4.1-7.9 0-13.5 6.1-13.5 13.6v.1C60.2 45 65.9 51 73.6 51zM39.3 68.9h8.4V91h4.6V68.9h8.3v-4.3H39.3zM38.9 28.4v-4.2H19.3v26.3H24V39.8h13.2v-4.2H24v-7.2z"/></symbol><symbol viewBox="0 0 64 24" id="next"><g id="next-next" stroke="none" stroke-width="1" fill-rule="evenodd"><path d="M32 12L0 24V0l32 12zm32 0L32 24V0l32 12z" id="next-icon"/></g></symbol><symbol viewBox="0 0 28 24" id="pause"><g id="pause-pause" stroke="none" stroke-width="1" fill-rule="evenodd"><path d="M0 0h10v24H0V0zm18 0h10v24H18V0z" id="pause-icon"/></g></symbol><symbol viewBox="0 0 32 24" id="play"><g id="play-play" stroke="none" stroke-width="1" fill-rule="evenodd"><path id="play-icon" transform="rotate(90 16 12)" d="M16-4l12 32H4z"/></g></symbol><symbol viewBox="0 0 64 24" id="prev"><g id="prev-prev" stroke="none" stroke-width="1" fill-rule="evenodd"><path d="M32 12L64 0v24L32 12zM0 12L32 0v24L0 12z" id="prev-icon"/></g></symbol><symbol viewBox="0 0 433 45" id="tes-title"><path fill-rule="evenodd" d="M591.22 213v-35.1c0-1.2-.36-1.8-1.08-1.8h-4.44v-3.78h18.84v3.78h-4.26c-.8 0-1.2.6-1.2 1.8V213h-7.86zm31.44 0v-20.34c0-1.2-.4-1.8-1.2-1.8h-5.34c-.84 0-1.26.6-1.26 1.8V213H607v-40.68h7.86v12.96c0 1.16.42 1.74 1.26 1.74h5.34c.8 0 1.2-.58 1.2-1.74v-12.96h7.86V213h-7.86zm19.08 0h-7.8v-40.68h7.8V213zm22.26-5.58c0 1.88-.45 3.28-1.35 4.2-.9.92-2.11 1.38-3.63 1.38H644.8v-18.54h7.86c4.28 0 6.42-1.8 6.42-5.4 0-3.76-1.5-5.64-4.5-5.64h-5.52c-2.6 0-3.9-1.82-3.9-5.46 0-.64.1-1.3.3-1.98.2-.68.47-1.29.81-1.83.34-.54.75-.98 1.23-1.32.48-.34 1-.51 1.56-.51h11.76v3.78h-7.92c-1.12 0-1.68.62-1.68 1.86 0 1.12.56 1.68 1.68 1.68h6.36c3.16 0 4.74 1.88 4.74 5.64v22.14zm40.98 5.58h-15.66c-2.64 0-3.96-1.86-3.96-5.58V177.9c0-3.72 1.32-5.58 3.96-5.58h15.66v3.78h-10.5c-.84 0-1.26.6-1.26 1.8v6.78c0 1.2.42 1.8 1.26 1.8h7.08v3.78h-7.08c-.84 0-1.26.62-1.26 1.86v7.86c0 1.24.42 1.86 1.26 1.86h10.5V213zm24.54-40.68L724.78 213h-13.26l-4.74-40.68h8.82l2.4 27.9c.08 1.28.52 1.92 1.32 1.92.6 0 .96-.64 1.08-1.92l2.52-27.9h6.6zM750.7 213h-15.66c-2.64 0-3.96-1.86-3.96-5.58V177.9c0-3.72 1.32-5.58 3.96-5.58h15.66v3.78h-10.5c-.84 0-1.26.6-1.26 1.8v6.78c0 1.2.42 1.8 1.26 1.8h7.08v3.78h-7.08c-.84 0-1.26.62-1.26 1.86v7.86c0 1.24.42 1.86 1.26 1.86h10.5V213zm22.98 0l-9.96-21.36c-.44-.8-.86-1.2-1.26-1.2-.64 0-.96.74-.96 2.22V213h-7.86v-40.68h8.46l9.84 21.36c.28.76.7 1.14 1.26 1.14.6 0 .9-.72.9-2.16v-20.34h7.86V213h-8.28zm19.44 0h-7.8v-40.68h7.8V213zm23.52 0l-9.96-21.36c-.44-.8-.86-1.2-1.26-1.2-.64 0-.96.74-.96 2.22V213h-7.86v-40.68h8.46l9.84 21.36c.28.76.7 1.14 1.26 1.14.6 0 .9-.72.9-2.16v-20.34h7.86V213h-8.28zm15.54 0c-1.16 0-2.1-.53-2.82-1.59-.72-1.06-1.08-2.39-1.08-3.99V177.9c0-3.72 1.3-5.58 3.9-5.58h17.64v3.78h-12.54c-.8 0-1.2.6-1.2 1.8v22.08c0 1.24.4 1.86 1.2 1.86h4.5c.88 0 1.32-.62 1.32-1.86v-9.24h7.38V213h-18.3zm25.26-34.86c-.08.44-.27.77-.57.99-.3.22-.55.33-.75.33h-1.62c-.84 0-1.22-.44-1.14-1.32l.3-7.62c.04-.68.13-1.15.27-1.41s.53-.39 1.17-.39h2.7c.72 0 1.08.6 1.08 1.8l-1.44 7.62zm22.98 29.28c0 1.88-.45 3.28-1.35 4.2-.9.92-2.11 1.38-3.63 1.38h-14.22v-18.54h7.86c4.28 0 6.42-1.8 6.42-5.4 0-3.76-1.5-5.64-4.5-5.64h-5.52c-2.6 0-3.9-1.82-3.9-5.46 0-.64.1-1.3.3-1.98.2-.68.47-1.29.81-1.83.34-.54.75-.98 1.23-1.32.48-.34 1-.51 1.56-.51h11.76v3.78h-7.92c-1.12 0-1.68.62-1.68 1.86 0 1.12.56 1.68 1.68 1.68h6.36c3.16 0 4.74 1.88 4.74 5.64v22.14zm40.14 0c0 1.88-.45 3.28-1.35 4.2-.9.92-2.11 1.38-3.63 1.38h-14.22v-18.54h7.86c4.28 0 6.42-1.8 6.42-5.4 0-3.76-1.5-5.64-4.5-5.64h-5.52c-2.6 0-3.9-1.82-3.9-5.46 0-.64.1-1.3.3-1.98.2-.68.47-1.29.81-1.83.34-.54.75-.98 1.23-1.32.48-.34 1-.51 1.56-.51h11.76v3.78h-7.92c-1.12 0-1.68.62-1.68 1.86 0 1.12.56 1.68 1.68 1.68h6.36c3.16 0 4.74 1.88 4.74 5.64v22.14zm18.66 5.58v-20.34c0-1.2-.4-1.8-1.2-1.8h-5.34c-.84 0-1.26.6-1.26 1.8V213h-7.86v-40.68h7.86v12.96c0 1.16.42 1.74 1.26 1.74h5.34c.8 0 1.2-.58 1.2-1.74v-12.96h7.86V213h-7.86zm34.2-5.58c0 1.88-.42 3.28-1.26 4.2-.84.92-1.7 1.38-2.58 1.38H954.4c-1.12 0-2.05-.48-2.79-1.44-.74-.96-1.11-2.34-1.11-4.14V177.9c0-1.68.39-3.03 1.17-4.05.78-1.02 1.69-1.53 2.73-1.53h15.18c1.28 0 2.24.42 2.88 1.26.64.84.96 2.28.96 4.32v29.52zm-6.54-29.52c0-1.2-.42-1.8-1.26-1.8h-5.04c-.84 0-1.26.6-1.26 1.8v22.08c0 1.24.42 1.86 1.26 1.86h5.04c.84 0 1.26-.62 1.26-1.86V177.9zm50.64-5.58l-4.74 40.68h-12.72l-2.46-20.58c-.12-1.32-.5-1.98-1.14-1.98-.68 0-1.08.66-1.2 1.98L992.92 213h-12.36l-4.68-40.68h8.64l2.4 27.9c.08 1.28.5 1.92 1.26 1.92.64 0 1.02-.64 1.14-1.92l2.46-27.9h12.3l2.34 27.9c.08 1.28.48 1.92 1.2 1.92.64 0 1.02-.64 1.14-1.92l2.52-27.9h6.24z" transform="translate(-585 -168)"/></symbol></svg>