<svg xmlns="http://www.w3.org/2000/svg"><symbol viewBox="0 0 64 64" id="apple-podcast"><g id="apple-podcast-apple-podcast" stroke="none" stroke-width="1" fill-rule="evenodd"><path d="M32.147 64s7.021 0 7.021-20.784c0-3.87-3.147-7.021-7.021-7.021-3.875 0-7.024 3.152-7.024 7.021C25.123 64 32.147 64 32.147 64zm8.613-7.083c.307-1.192.547-2.389.733-3.602l.142-.96c.306-.134.613-.262.922-.4a25.368 25.368 0 0 0 11.595-10.648 25.05 25.05 0 0 0 2.595-6.859c.605-2.688.76-5.49.442-8.235a23.8 23.8 0 0 0-2.053-7.432c-1.24-2.77-2.963-5.296-5.13-7.424-2.209-2.205-4.82-4.013-7.667-5.258-2.928-1.323-6.142-2.006-9.387-2.086-3.253-.08-6.501.443-9.552 1.608a24.952 24.952 0 0 0-7.944 4.891A25.086 25.086 0 0 0 10 17.653a25.785 25.785 0 0 0-2.405 7.262c-.443 2.61-.443 5.296-.043 7.946A25.343 25.343 0 0 0 9.6 39.643 25.334 25.334 0 0 0 20.955 51.36c.602.277 1.202.56 1.845.837.04.323.123.683.16 1.046.2 1.168.443 2.37.723 3.533a31.33 31.33 0 0 1-3.211-1.248C14.733 52.925 9.88 48.429 6.869 42.851c-1.365-2.526-2.328-5.214-2.928-8.027-.685-3.088-.805-6.339-.4-9.51a30.154 30.154 0 0 1 2.488-8.586 29.848 29.848 0 0 1 6.056-8.544c2.443-2.443 5.494-4.49 8.827-5.896A29.284 29.284 0 0 1 31.875.003c3.765-.04 7.53.64 11.037 2.021A29.064 29.064 0 0 1 52.059 7.8a29.133 29.133 0 0 1 6.256 8.37 28.631 28.631 0 0 1 2.688 8.467c.48 3.051.48 6.179-.043 9.19-.443 2.808-1.365 5.576-2.61 8.141a29.259 29.259 0 0 1-13.12 13.125 32.53 32.53 0 0 1-4.414 1.763l-.056.061zm1.387-11.453l.026-1.253c0-.843 0-1.686-.122-2.515-.04-.323-.12-.603-.2-.923a14.564 14.564 0 0 0 3.65-4.453 14.97 14.97 0 0 0 1.486-4.136c.322-1.605.4-3.288.162-4.973a15.948 15.948 0 0 0-1.202-4.294 15.58 15.58 0 0 0-3.088-4.453c-1.326-1.283-2.811-2.325-4.496-3.09-1.846-.8-3.854-1.28-5.859-1.323a15.846 15.846 0 0 0-5.939 1.045 15.41 15.41 0 0 0-4.613 2.888c-1.368 1.243-2.49 2.688-3.293 4.33a15.362 15.362 0 0 0-1.446 4.214 14.969 14.969 0 0 0-.12 4.613c.2 1.486.603 2.931 1.203 4.291a15.72 15.72 0 0 0 3.973 5.339l-.242 1.082c-.16.843-.12 1.646-.12 2.526v1.125c-2.811-1.723-5.139-4.213-6.702-7.101a17.597 17.597 0 0 1-1.928-5.259 18.205 18.205 0 0 1-.24-6.259c.24-1.885.763-3.73 1.526-5.418.922-2.083 2.285-4.011 3.89-5.656a18.754 18.754 0 0 1 5.656-3.891 19.624 19.624 0 0 1 7.384-1.685c2.571-.043 5.139.4 7.502 1.325a18.814 18.814 0 0 1 5.858 3.648c1.683 1.565 3.131 3.408 4.171 5.459.843 1.685 1.485 3.49 1.808 5.336.323 1.928.4 3.89.12 5.818-.24 1.886-.76 3.731-1.568 5.456-1.563 3.494-3.92 6.219-7.21 8.187h-.027zm-10-25.533a7.08 7.08 0 0 1 7.077 7.082c0 3.928-3.17 7.099-7.077 7.099-3.912 0-7.08-3.17-7.08-7.061s3.168-7.064 7.08-7.064v-.056z" id="apple-podcast-Shape" fill-rule="nonzero"/></g></symbol><symbol viewBox="0 0 724 724" id="circles"><g id="circles-Artboard" stroke="#0D3D91" stroke-width="2" fill-rule="evenodd"><circle id="circles-Oval_47" cx="361.989" cy="361.989" r="353.989"/><circle id="circles-Oval_46" cx="363" cy="362" r="347"/><circle id="circles-Oval_45" cx="363" cy="362" r="339"/><circle id="circles-Oval_44" cx="362.989" cy="361.989" r="331.989"/><circle id="circles-Oval_43" cx="364" cy="362" r="325"/><circle id="circles-Oval_42" cx="364" cy="362" r="317"/><circle id="circles-Oval_41" cx="363.988" cy="361.988" r="309.988"/><circle id="circles-Oval_48" cx="362" cy="362" r="361"/><circle id="circles-Oval_40" cx="365" cy="362" r="303"/><circle id="circles-Oval_39" cx="364.988" cy="361.988" r="295.988"/><circle id="circles-Oval_38" cx="365.999" cy="361.999" r="288.999"/><circle id="circles-Oval_37" cx="366.001" cy="362.001" r="281.001"/><circle id="circles-Oval_36" cx="365.986" cy="361.986" r="273.986"/><circle id="circles-Oval_35" cx="367" cy="362" r="267"/><circle id="circles-Oval_34" cx="366.986" cy="361.986" r="259.986"/><circle id="circles-Oval_33" cx="367.999" cy="361.999" r="252.999"/><circle id="circles-Oval_32" cx="368.001" cy="362.001" r="245.001"/><circle id="circles-Oval_31" cx="367.984" cy="361.984" r="237.984"/><circle id="circles-Oval_30" cx="369" cy="362" r="231"/><circle id="circles-Oval_29" cx="369" cy="362" r="223"/><circle id="circles-Oval_28" cx="368.983" cy="361.983" r="215.983"/><circle id="circles-Oval_27" cx="369.999" cy="361.999" r="208.999"/><circle id="circles-Oval_26" cx="370.001" cy="362.001" r="201.001"/><circle id="circles-Oval_25" cx="369.98" cy="361.98" r="193.98"/><circle id="circles-Oval_24" cx="370.999" cy="361.999" r="186.999"/><circle id="circles-Oval_23" cx="371" cy="362" r="179"/><circle id="circles-Oval_22" cx="370.979" cy="361.979" r="171.979"/><circle id="circles-Oval_21" cx="371.999" cy="361.999" r="164.999"/><circle id="circles-Oval_20" cx="371.978" cy="361.978" r="157.978"/><circle id="circles-Oval_19" cx="372.997" cy="361.997" r="150.997"/><circle id="circles-Oval_18" cx="373.003" cy="362.003" r="143.003"/><circle id="circles-Oval_17" cx="372.971" cy="361.971" r="135.971"/><circle id="circles-Oval_16" cx="374" cy="362" r="129"/><circle id="circles-Oval_15" cx="374" cy="362" r="121"/><circle id="circles-Oval_14" cx="374" cy="362" r="113"/><circle id="circles-Oval_13" cx="374" cy="362" r="105"/><circle id="circles-Oval_12" cx="374" cy="362" r="97"/><circle id="circles-Oval_11" cx="374" cy="362" r="89"/><circle id="circles-Oval_10" cx="374" cy="362" r="81"/><circle id="circles-Oval_9" cx="374" cy="362" r="73"/><circle id="circles-Oval_8" cx="374" cy="362" r="65"/><circle id="circles-Oval_7" cx="374" cy="362" r="57"/><circle id="circles-Oval_6" cx="374" cy="362" r="49"/><circle id="circles-Oval_5" cx="374" cy="362" r="41"/><circle id="circles-Oval_4" cx="374" cy="362" r="33"/><circle id="circles-Oval_3" cx="374" cy="362" r="25"/><circle id="circles-Oval_2" cx="374" cy="362" r="17"/><circle id="circles-Oval_1" cx="374" cy="362" r="9"/></g></symbol><symbol viewBox="0 0 60 47" id="curved-line"><path fill-rule="evenodd" d="M414.354 738.019c2.922.109 6.897-.14 11.552-1.045 7.094-1.379 14.113-4.007 20.676-8.185 11.645-7.413 20.758-18.998 26.365-35.467a1 1 0 0 0-1.894-.644c-5.46 16.037-14.283 27.255-25.545 34.424-6.338 4.034-13.123 6.575-19.984 7.909-4.494.873-8.318 1.113-11.095 1.009a12.038 12.038 0 0 1-.358-.017 1 1 0 0 0-.142 1.994c.078.006.22.014.425.022z" transform="translate(-413 -692)"/></symbol><symbol viewBox="0 0 64 64" id="google-podcast"><g id="google-podcast-google-podcast" stroke="none" stroke-width="1" fill-rule="evenodd"><path d="M31.943 63.887C14.301 63.887 0 49.585 0 31.943S14.301 0 31.943 0c17.642 0 31.944 14.301 31.944 31.943 0 17.642-14.302 31.944-31.944 31.944zM32 21a3 3 0 0 0-3 3v16a3 3 0 0 0 6 0V24a3 3 0 0 0-3-3zm-10-2a3 3 0 0 0-3 3v9a3 3 0 0 0 6 0v-9a3 3 0 0 0-3-3zm20 11a3 3 0 0 0-3 3v9a3 3 0 0 0 6 0v-9a3 3 0 0 0-3-3zM32 9a3 3 0 0 0-3 3v3a3 3 0 0 0 6 0v-3a3 3 0 0 0-3-3zm0 37a3 3 0 0 0-3 3v3a3 3 0 0 0 6 0v-3a3 3 0 0 0-3-3zm10-28a3 3 0 0 0-3 3v3a3 3 0 0 0 6 0v-3a3 3 0 0 0-3-3zM22 37a3 3 0 0 0-3 3v3a3 3 0 0 0 6 0v-3a3 3 0 0 0-3-3zm-10-9a3 3 0 0 0-3 3v3a3 3 0 0 0 6 0v-3a3 3 0 0 0-3-3zm40 0a3 3 0 0 0-3 3v3a3 3 0 0 0 6 0v-3a3 3 0 0 0-3-3z" id="google-podcast-Combined-Shape" fill-rule="nonzero"/></g></symbol><symbol viewBox="0 0 64 24" id="half-speed"><g id="half-speed-Page-1" stroke="none" stroke-width="1" fill-rule="evenodd"><path d="M32 4v16h28V4H32zM4 0h56a4 4 0 0 1 4 4v16a4 4 0 0 1-4 4H4a4 4 0 0 1-4-4V4a4 4 0 0 1 4-4z" id="half-speed-speed" fill-rule="nonzero"/></g></symbol><symbol viewBox="0 0 32 32" id="icon-at"><path d="M22.3 19.3c-.3.4-.3.6-.3 1s-.2.6-.2.8 0 .4.2.6c.2.2.4.2.6.2.6 0 1.3-.2 1.9-.6.6-.4 1.3-1.1 1.7-1.9.4-.8.8-1.7 1.3-3 .4-1.1.4-2.3.4-3.6 0-1.5-.2-3-.8-4.2s-1.5-2.3-2.5-3.2-2.3-1.4-3.6-2c-1.3-.4-2.8-.6-4.5-.6-1.9 0-3.4.4-4.9 1.1S8.9 5.3 7.8 6.6s-1.9 2.5-2.5 4c-.6 1.5-.8 3.2-.8 5.1 0 2.1.4 4 1.1 5.5.6 1.7 1.5 3.2 2.5 4.2 1.1 1.1 2.5 2.1 4 2.8s3.2 1.1 4.9 1.1c1.9 0 3.6-.4 5.3-1.1s3.2-1.7 4.2-3.2h3c-1.3 2.1-3.2 3.8-5.3 5.1-2.4 1.3-4.7 1.9-7.2 1.9-2.1 0-4.2-.4-6.1-1.3-1.9-.8-3.6-1.9-5.1-3.4-1.5-1.5-2.5-3.2-3.4-5.1s-1.1-4.5-1.1-7c0-2.1.4-4.2 1.3-5.9.8-1.9 1.9-3.4 3.4-4.9 1.5-1.5 3-2.5 4.9-3.2C12.7.4 14.6 0 16.7 0c1.9 0 3.6.2 5.3.8s3.2 1.5 4.5 2.5c1.3 1.1 2.3 2.3 3.2 4 .8 1.5 1.1 3.2 1.1 5.1 0 2.1-.4 4-1.1 5.5-.6 1.5-1.7 3-2.5 4-1.1 1.1-2.1 1.9-3.2 2.3-1.1.4-2.1.8-3 .8-.6 0-1.3-.2-1.7-.6-.4-.4-.8-1.1-.8-1.9-.6.6-1.3 1.3-2.1 1.7-.8.4-1.7.6-2.5.6s-1.7-.2-2.5-.4c-.8-.4-1.5-.8-1.9-1.5-.6-.6-1.1-1.3-1.3-2.1-.2-.8-.4-1.7-.4-2.5 0-1.3.2-2.8.6-4 .4-1.3 1.1-2.5 1.9-3.6.8-1.1 1.7-1.9 3-2.5 1.1-.6 2.3-1.1 3.8-1.1 1.1 0 1.9.2 2.8.6.8.4 1.5 1.3 2.1 2.3l.8-2.3h3l-3.5 11.6zm-7.9 2.5c.8 0 1.7-.2 2.3-.8.6-.4 1.3-1.1 1.9-1.9.4-.8.8-1.5 1.3-2.5s.4-1.7.4-2.5c0-.4 0-1.1-.2-1.5s-.4-.8-.6-1.3c-.2-.4-.6-.6-1.1-.8-.4-.2-.8-.2-1.3-.2-.8 0-1.7.2-2.3.6-.6.4-1.3 1.1-1.9 1.7-.4.6-.8 1.5-1.3 2.3-.2.8-.4 1.7-.4 2.5 0 1.1.2 2.1.8 2.8.7.6 1.4 1.6 2.4 1.6z"/></symbol><symbol viewBox="0 0 48 48" id="icon-eye"><g id="icon-eye-icon-eye" stroke="none" stroke-width="1" fill-rule="evenodd"><path d="M46.916 23.051l.454.946-.454.945c-4.75 9.897-13.578 16.043-23.04 16.043-9.46 0-18.29-6.147-23.038-16.043l-.455-.945.455-.946c4.75-9.898 13.577-16.045 23.039-16.045 9.461 0 18.29 6.148 23.039 16.045zm-23.04 13.771c7.68 0 14.906-4.887 19.073-12.824-4.167-7.937-11.392-12.824-19.072-12.824S8.972 16.06 4.806 23.998c4.166 7.937 11.39 12.824 19.07 12.824zm0-6.324c-3.379 0-6.119-2.911-6.119-6.502 0-3.591 2.74-6.502 6.12-6.502s6.12 2.911 6.12 6.502c0 3.591-2.74 6.502-6.12 6.502z" id="icon-eye-Shape" fill-rule="nonzero"/></g></symbol><symbol viewBox="0 0 32 32" id="icon-facebook"><path d="M22.9 16h-4.5v16h-6.6V16H8.6v-5.6h3.2V6.7C11.7 4.1 13 0 18.4 0h4.9v5.5h-3.6c-.6 0-1.4.3-1.4 1.5v3.3h5.1l-.5 5.7z"/></symbol><symbol viewBox="0 0 32 32" id="icon-itunes"><path d="M28.5 0L10.9 4.8v20.1c-.6-.5-1.6-.8-2.7-.8-1.9 0-4.8 1.3-4.8 4s2.7 4 4.8 4c3.6 0 4.6-2.9 4.6-3.5V11.4l13.9-3.8v14.1s-1.3-1-3-1c-2.9 0-4.8 1.9-4.8 4 0 2.9 2.9 4 4.8 4 2.5 0 4.8-1.7 4.8-4V0z"/></symbol><symbol viewBox="0 0 24 24" id="icon-overflow"><g id="icon-overflow-overflow-x" stroke="none" stroke-width="1" fill-rule="evenodd"><path d="M19 14a2 2 0 1 1 0-4 2 2 0 0 1 0 4zM5 14a2 2 0 1 1 0-4 2 2 0 0 1 0 4zm7 0a2 2 0 1 1 0-4 2 2 0 0 1 0 4z" id="icon-overflow-icon" fill-rule="nonzero"/></g></symbol><symbol viewBox="0 0 36 36" id="icon-rss"><path d="M4 13.7c-1.5 0-2.7 1.2-2.7 2.7C1.3 17.8 2.5 19 4 19c7.1 0 13 5.8 12.9 13 0 1.5 1.2 2.7 2.7 2.7 1.5 0 2.7-1.2 2.7-2.7 0-10.1-8.2-18.3-18.3-18.3z"/><path d="M4 0C2.6 0 1.4 1.2 1.4 2.7c0 1.5 1.2 2.7 2.7 2.7 14.7 0 26.6 12 26.6 26.7 0 1.5 1.2 2.7 2.7 2.7 1.5 0 2.7-1.2 2.7-2.7C36 14.4 21.7 0 4 0z"/><ellipse cx="4.7" cy="31.3" rx="4.7" ry="4.7"/></symbol><symbol viewBox="0 0 32 32" id="icon-stitcher"><path d="M23.2 8.8c-.7-.9-1.4-1.4-2.5-2-1.1-.5-2-.7-3.1-.7-.5 0-1.1 0-1.4.2-.5 0-.9.2-1.4.5-.4.2-.8.6-1.1.9-.4.4-.4.9-.4 1.4 0 .5.2.9.4 1.3s.5.7.9.9c.4.2.9.5 1.4.7.5.2 1.3.4 2 .7 1.1.4 2.2.7 3.2 1.1 1.1.4 2.2.9 3.1 1.6.9.7 1.6 1.6 2.3 2.5.5 1.1.9 2.3.9 3.8 0 1.8-.4 3.2-.9 4.7-.7 1.3-1.6 2.3-2.7 3.2-1.1.9-2.3 1.4-3.8 1.8-1.4.4-2.9.5-4.3.5-2.2 0-4.3-.4-6.5-1.1-2-.7-3.8-1.8-5.2-3.2l4.9-5c.7.9 1.8 1.6 3.1 2.3 1.3.5 2.5.9 3.6.9.5 0 1.1 0 1.6-.2s.9-.4 1.4-.5c.4-.2.7-.5.9-1.1.2-.4.4-.9.4-1.6 0-.5-.2-1.1-.4-1.4-.4-.4-.7-.7-1.3-1.1-.5-.4-1.3-.7-2-.9-.7-.4-1.6-.5-2.7-.9-.9-.4-2-.7-2.9-1.1-.8-.3-1.7-1-2.4-1.5-.7-.8-1.3-1.5-1.8-2.6-.6-.9-.7-2.1-.7-3.6 0-1.8.4-3.2 1.1-4.3.7-1.2 1.5-2.1 2.6-3 1.1-.7 2.3-1.4 3.8-1.8 1.6 0 3.1-.2 4.5-.2 1.8 0 3.6.4 5.4.9 1.8.7 3.4 1.6 4.7 2.9l-4.7 5z"/></symbol><symbol viewBox="0 0 32 32" id="icon-twitter"><path d="M27.9 9.9v.8c0 8.1-6.2 17.5-17.5 17.5-3.5 0-6.7-1-9.4-2.8.5.1 1 .1 1.5.1 2.9 0 5.5-1 7.6-2.6-2.7-.1-5-1.8-5.7-4.3.4.1.8.1 1.2.1.6 0 1.1-.1 1.6-.2-2.8-.6-4.9-3.1-4.9-6v-.1c.7.4 1.7.7 2.7.8-1.7-1.2-2.7-3-2.7-5.2 0-1.1.3-2.2.8-3.1 3 3.7 7.6 6.2 12.7 6.4-.1-.4-.2-.9-.2-1.4 0-3.4 2.8-6.2 6.2-6.2 1.8 0 3.4.7 4.5 1.9 1.4-.1 2.7-.6 3.9-1.3-.5 1.4-1.4 2.6-2.7 3.4 1.2-.1 2.4-.5 3.5-1-.8 1.2-1.9 2.3-3.1 3.2z"/></symbol><symbol viewBox="0 0 64 64" id="itunes"><g id="itunes-itunes" stroke="none" stroke-width="1" fill-rule="evenodd"><path d="M32 64C14.327 64 0 49.673 0 32 0 14.327 14.327 0 32 0c17.673 0 32 14.327 32 32 0 17.673-14.327 32-32 32zm13.149-53.028c-.188 0-.836.092-1.441.205-2.677.499-18.454 3.715-18.723 3.816a2.02 2.02 0 0 0-1.026.931l-.166.337-.036 11.928c-.034 11.287-.043 11.943-.163 12.212-.184.409-.592.797-.968.92-.179.058-.884.22-1.567.36-3.166.644-4.341 1.109-5.336 2.108a4.483 4.483 0 0 0-1.164 2.154c-.173.777-.115 1.94.132 2.646.514 1.475 1.654 2.52 3.189 2.922 1.449.38 4.162-.042 5.549-.863.58-.343 1.326-1.064 1.714-1.656.154-.234.385-.706.514-1.049.451-1.2.442-.944.443-12.243 0-7.356.023-10.343.08-10.613.098-.456.403-.791.825-.905.379-.102 15.57-3.175 15.998-3.237.402-.057.783.087.966.365.123.188.13.56.149 7.331.02 7.793.03 7.61-.384 8.102-.3.358-.677.496-2.221.818-2.35.491-3.153.724-4.053 1.174-1.123.562-1.747 1.177-2.23 2.199-.34.723-.468 1.265-.467 1.984.002 1.287.436 2.293 1.415 3.277.672.677 1.287 1.031 2.135 1.231.953.225 2.893.077 4.22-.322 1.88-.564 3.205-1.931 3.749-3.863l.16-.568.02-15.23c.016-11.405.001-15.3-.06-15.513-.178-.61-.633-.959-1.253-.958z" id="itunes-Combined-Shape" fill-rule="nonzero"/></g></symbol><symbol viewBox="0 0 60 60" id="logo-fc"><path d="M56 15C47.7.7 29.3-4.3 15 4S-4.3 30.7 4 45s26.6 19.3 41 11c14.3-8.3 19.3-26.6 11-41zM11 32.6H8.3V17h11.6v2.5H11v4.2h7.8v2.5H11v6.4zm6.2 11.2L15.8 42l12.1-9.5-6.6-1.6 17.1-14.4 1.5 1.8-13.6 11.4 6.8 1.7-15.9 12.4zm28.2-1.7c-4.5 0-7.9-3.5-7.9-8 0-4.4 3.3-8 8-8 2.9 0 4.6 1 6.1 2.4l-1.8 2c-1.2-1.2-2.6-1.9-4.4-1.9-3 0-5.1 2.4-5.1 5.5 0 3 2.2 5.5 5.1 5.5 1.9 0 3.1-.8 4.5-2l1.8 1.8c-1.6 1.6-3.4 2.7-6.3 2.7z"/></symbol><symbol viewBox="0 0 100 138" id="logo-fct"><path d="M92.2 77.1l2.1-3.6c3.6-7 5.7-14.9 5.7-23.3 0-27-21.3-49-47.9-50.1V0h-4.2v.1C21.3 1.2 0 23.2 0 50.2c0 8.4 2.1 16.3 5.7 23.3l2.1 3.6c5.3 8.4 13.1 15.1 22.2 19.1H0V138h100V96.2H70c9.2-4 16.9-10.7 22.2-19.1zm-9.8-59.4c8.7 8.7 13.4 20.2 13.4 32.5 0 7.5-1.8 14.7-5.1 21.2L52.1 49V4.2c11.4.5 22.1 5.3 30.3 13.5zM4.2 50.2c0-12.3 4.8-23.8 13.4-32.5 8.2-8.2 18.9-13 30.3-13.5V49L9.3 71.4c-3.4-6.5-5.1-13.7-5.1-21.2zm13.4 32.5c-2.4-2.4-4.4-5-6.2-7.7L50 52.6 88.6 75c-1.8 2.8-3.8 5.4-6.2 7.7-8.6 8.7-20.2 13.5-32.4 13.5s-23.7-4.8-32.4-13.5zm78.2 17.7v33.5H4.2v-33.5h91.6z"/><path d="M73.6 51c4.9 0 7.9-1.8 10.6-4.7l-3-3c-2.3 2.1-4.3 3.4-7.5 3.4-5 0-8.7-4.2-8.7-9.4v-.1c0-5.2 3.6-9.3 8.7-9.3 3 0 5.2 1.3 7.3 3.3l3-3.4c-2.5-2.4-5.4-4.1-10.3-4.1-7.9 0-13.5 6.1-13.5 13.6v.1C60.2 45 65.9 51 73.6 51zM39.3 68.9h8.4V91h4.6V68.9h8.3v-4.3H39.3zM38.9 28.4v-4.2H19.3v26.3H24V39.8h13.2v-4.2H24v-7.2z"/></symbol><symbol viewBox="0 0 64 24" id="next"><g id="next-next" stroke="none" stroke-width="1" fill-rule="evenodd"><path d="M32 12L0 24V0l32 12zm32 0L32 24V0l32 12z" id="next-icon"/></g></symbol><symbol viewBox="0 0 28 24" id="pause"><g id="pause-pause" stroke="none" stroke-width="1" fill-rule="evenodd"><path d="M0 0h10v24H0V0zm18 0h10v24H18V0z" id="pause-icon"/></g></symbol><symbol viewBox="0 0 32 24" id="play"><g id="play-play" stroke="none" stroke-width="1" fill-rule="evenodd"><path id="play-icon" transform="rotate(90 16 12)" d="M16-4l12 32H4z"/></g></symbol><symbol viewBox="0 0 64 24" id="prev"><g id="prev-prev" stroke="none" stroke-width="1" fill-rule="evenodd"><path d="M32 12L64 0v24L32 12zM0 12L32 0v24L0 12z" id="prev-icon"/></g></symbol><symbol viewBox="0 0 256 256" id="rss"><g id="rss-Page-1" stroke="none" stroke-width="1" fill-rule="evenodd"><path d="M48 0h160c26.51 0 48 21.49 48 48v160c0 26.51-21.49 48-48 48H48c-26.51 0-48-21.49-48-48V48C0 21.49 21.49 0 48 0zm16 224c17.673 0 32-14.327 32-32 0-17.673-14.327-32-32-32-17.673 0-32 14.327-32 32 0 17.673 14.327 32 32 32zm-32-96c53.02 0 96 42.98 96 96h32c0-70.692-57.308-128-128-128v32zm0-64a160 160 0 0 1 160 160h32c0-106.039-85.961-192-192-192v32z" id="rss-rss" fill-rule="nonzero"/></g></symbol><symbol viewBox="0 0 64 64" id="spotify"><g id="spotify-spotify" stroke="none" stroke-width="1" fill-rule="evenodd"><path d="M32 0c17.674.002 32 14.328 32 32 0 17.674-14.326 32-32 32S0 49.674 0 32 14.326 0 32 0zm14.676 46.152a1.995 1.995 0 0 0-.662-2.743c-8.435-5.153-18.892-6.352-31.08-3.568a1.991 1.991 0 0 0-1.5 2.389 1.993 1.993 0 0 0 2.388 1.5c11.138-2.544 20.598-1.507 28.111 3.085.94.575 2.168.28 2.743-.663zm3.915-8.71a2.493 2.493 0 0 0-.823-3.43c-9.877-6.071-24.325-7.779-35.946-4.252a2.5 2.5 0 0 0-1.664 3.111 2.499 2.499 0 0 0 3.114 1.662c10.173-3.088 23.287-1.557 31.886 3.73 1.173.72 2.71.353 3.433-.822zm.336-9.075a2.994 2.994 0 0 0 3.055-5.149c-11.874-7.049-30.664-7.71-41.968-4.28a2.995 2.995 0 0 0-1.996 3.734 2.99 2.99 0 0 0 3.732 1.993c9.848-2.987 26.862-2.423 37.177 3.702z" id="spotify-Shape" fill-rule="nonzero"/></g></symbol><symbol viewBox="0 0 433 45" id="tes-title"><path fill-rule="evenodd" d="M591.22 213v-35.1c0-1.2-.36-1.8-1.08-1.8h-4.44v-3.78h18.84v3.78h-4.26c-.8 0-1.2.6-1.2 1.8V213h-7.86zm31.44 0v-20.34c0-1.2-.4-1.8-1.2-1.8h-5.34c-.84 0-1.26.6-1.26 1.8V213H607v-40.68h7.86v12.96c0 1.16.42 1.74 1.26 1.74h5.34c.8 0 1.2-.58 1.2-1.74v-12.96h7.86V213h-7.86zm19.08 0h-7.8v-40.68h7.8V213zm22.26-5.58c0 1.88-.45 3.28-1.35 4.2-.9.92-2.11 1.38-3.63 1.38H644.8v-18.54h7.86c4.28 0 6.42-1.8 6.42-5.4 0-3.76-1.5-5.64-4.5-5.64h-5.52c-2.6 0-3.9-1.82-3.9-5.46 0-.64.1-1.3.3-1.98.2-.68.47-1.29.81-1.83.34-.54.75-.98 1.23-1.32.48-.34 1-.51 1.56-.51h11.76v3.78h-7.92c-1.12 0-1.68.62-1.68 1.86 0 1.12.56 1.68 1.68 1.68h6.36c3.16 0 4.74 1.88 4.74 5.64v22.14zm40.98 5.58h-15.66c-2.64 0-3.96-1.86-3.96-5.58V177.9c0-3.72 1.32-5.58 3.96-5.58h15.66v3.78h-10.5c-.84 0-1.26.6-1.26 1.8v6.78c0 1.2.42 1.8 1.26 1.8h7.08v3.78h-7.08c-.84 0-1.26.62-1.26 1.86v7.86c0 1.24.42 1.86 1.26 1.86h10.5V213zm24.54-40.68L724.78 213h-13.26l-4.74-40.68h8.82l2.4 27.9c.08 1.28.52 1.92 1.32 1.92.6 0 .96-.64 1.08-1.92l2.52-27.9h6.6zM750.7 213h-15.66c-2.64 0-3.96-1.86-3.96-5.58V177.9c0-3.72 1.32-5.58 3.96-5.58h15.66v3.78h-10.5c-.84 0-1.26.6-1.26 1.8v6.78c0 1.2.42 1.8 1.26 1.8h7.08v3.78h-7.08c-.84 0-1.26.62-1.26 1.86v7.86c0 1.24.42 1.86 1.26 1.86h10.5V213zm22.98 0l-9.96-21.36c-.44-.8-.86-1.2-1.26-1.2-.64 0-.96.74-.96 2.22V213h-7.86v-40.68h8.46l9.84 21.36c.28.76.7 1.14 1.26 1.14.6 0 .9-.72.9-2.16v-20.34h7.86V213h-8.28zm19.44 0h-7.8v-40.68h7.8V213zm23.52 0l-9.96-21.36c-.44-.8-.86-1.2-1.26-1.2-.64 0-.96.74-.96 2.22V213h-7.86v-40.68h8.46l9.84 21.36c.28.76.7 1.14 1.26 1.14.6 0 .9-.72.9-2.16v-20.34h7.86V213h-8.28zm15.54 0c-1.16 0-2.1-.53-2.82-1.59-.72-1.06-1.08-2.39-1.08-3.99V177.9c0-3.72 1.3-5.58 3.9-5.58h17.64v3.78h-12.54c-.8 0-1.2.6-1.2 1.8v22.08c0 1.24.4 1.86 1.2 1.86h4.5c.88 0 1.32-.62 1.32-1.86v-9.24h7.38V213h-18.3zm25.26-34.86c-.08.44-.27.77-.57.99-.3.22-.55.33-.75.33h-1.62c-.84 0-1.22-.44-1.14-1.32l.3-7.62c.04-.68.13-1.15.27-1.41s.53-.39 1.17-.39h2.7c.72 0 1.08.6 1.08 1.8l-1.44 7.62zm22.98 29.28c0 1.88-.45 3.28-1.35 4.2-.9.92-2.11 1.38-3.63 1.38h-14.22v-18.54h7.86c4.28 0 6.42-1.8 6.42-5.4 0-3.76-1.5-5.64-4.5-5.64h-5.52c-2.6 0-3.9-1.82-3.9-5.46 0-.64.1-1.3.3-1.98.2-.68.47-1.29.81-1.83.34-.54.75-.98 1.23-1.32.48-.34 1-.51 1.56-.51h11.76v3.78h-7.92c-1.12 0-1.68.62-1.68 1.86 0 1.12.56 1.68 1.68 1.68h6.36c3.16 0 4.74 1.88 4.74 5.64v22.14zm40.14 0c0 1.88-.45 3.28-1.35 4.2-.9.92-2.11 1.38-3.63 1.38h-14.22v-18.54h7.86c4.28 0 6.42-1.8 6.42-5.4 0-3.76-1.5-5.64-4.5-5.64h-5.52c-2.6 0-3.9-1.82-3.9-5.46 0-.64.1-1.3.3-1.98.2-.68.47-1.29.81-1.83.34-.54.75-.98 1.23-1.32.48-.34 1-.51 1.56-.51h11.76v3.78h-7.92c-1.12 0-1.68.62-1.68 1.86 0 1.12.56 1.68 1.68 1.68h6.36c3.16 0 4.74 1.88 4.74 5.64v22.14zm18.66 5.58v-20.34c0-1.2-.4-1.8-1.2-1.8h-5.34c-.84 0-1.26.6-1.26 1.8V213h-7.86v-40.68h7.86v12.96c0 1.16.42 1.74 1.26 1.74h5.34c.8 0 1.2-.58 1.2-1.74v-12.96h7.86V213h-7.86zm34.2-5.58c0 1.88-.42 3.28-1.26 4.2-.84.92-1.7 1.38-2.58 1.38H954.4c-1.12 0-2.05-.48-2.79-1.44-.74-.96-1.11-2.34-1.11-4.14V177.9c0-1.68.39-3.03 1.17-4.05.78-1.02 1.69-1.53 2.73-1.53h15.18c1.28 0 2.24.42 2.88 1.26.64.84.96 2.28.96 4.32v29.52zm-6.54-29.52c0-1.2-.42-1.8-1.26-1.8h-5.04c-.84 0-1.26.6-1.26 1.8v22.08c0 1.24.42 1.86 1.26 1.86h5.04c.84 0 1.26-.62 1.26-1.86V177.9zm50.64-5.58l-4.74 40.68h-12.72l-2.46-20.58c-.12-1.32-.5-1.98-1.14-1.98-.68 0-1.08.66-1.2 1.98L992.92 213h-12.36l-4.68-40.68h8.64l2.4 27.9c.08 1.28.5 1.92 1.26 1.92.64 0 1.02-.64 1.14-1.92l2.46-27.9h12.3l2.34 27.9c.08 1.28.48 1.92 1.2 1.92.64 0 1.02-.64 1.14-1.92l2.52-27.9h6.24z" transform="translate(-585 -168)"/></symbol></svg>