<?xml version="1.0" encoding="UTF-8"?>
<svg width="64px" height="64px" viewBox="0 0 64 64" version="1.1" xmlns="http://www.w3.org/2000/svg" xmlns:xlink="http://www.w3.org/1999/xlink">
    <!-- Generator: Sketch 53 (72520) - https://sketchapp.com -->
    <title>apple-podcast</title>
    <desc>Created with Sketch.</desc>
    <g id="apple-podcast" stroke="none" stroke-width="1" fill="none" fill-rule="evenodd">
        <path d="M32.1466667,64 C32.1466667,64 39.168,64 39.168,43.216 C39.168,39.3466667 36.0213333,36.1946667 32.1466667,36.1946667 C28.272,36.1946667 25.1226667,39.3466667 25.1226667,43.216 C25.1226667,64 32.1466667,64 32.1466667,64 Z M40.76,56.9173333 C41.0666667,55.7253333 41.3066667,54.528 41.4933333,53.3146667 L41.6346667,52.3546667 C41.9413333,52.2213333 42.248,52.0933333 42.5573333,51.9546667 C47.432,49.7466667 51.536,45.9733333 54.152,41.3066667 C55.344,39.1653333 56.224,36.8533333 56.7466667,34.448 C57.352,31.76 57.5066667,28.9573333 57.1893333,26.2133333 C56.9093333,23.6453333 56.2266667,21.136 55.136,18.7813333 C53.896,16.0106667 52.1733333,13.4853333 50.0053333,11.3573333 C47.7973333,9.152 45.1866667,7.344 42.3386667,6.09866667 C39.4106667,4.776 36.1973333,4.09333333 32.952,4.01333333 C29.6986667,3.93333333 26.4506667,4.456 23.4,5.62133333 C20.472,6.73866667 17.784,8.38666667 15.456,10.512 C13.2506667,12.5173333 11.3653333,14.9653333 10,17.6533333 C8.83466667,19.9413333 8.03733333,22.3893333 7.59466667,24.9146667 C7.152,27.5253333 7.152,30.2106667 7.552,32.8613333 C7.912,35.1866667 8.59466667,37.4746667 9.6,39.6426667 C11.968,44.6586667 15.9813333,48.8266667 20.9546667,51.36 C21.5573333,51.6373333 22.1573333,51.92 22.8,52.1973333 C22.84,52.52 22.9226667,52.88 22.96,53.2426667 C23.16,54.4106667 23.4026667,55.6133333 23.6826667,56.776 C22.6,56.4133333 21.5146667,56.0106667 20.472,55.528 C14.7333333,52.9253333 9.88,48.4293333 6.86933333,42.8506667 C5.504,40.3253333 4.54133333,37.6373333 3.94133333,34.824 C3.256,31.736 3.136,28.4853333 3.54133333,25.3146667 C3.94133333,22.3493333 4.784,19.4186667 6.02933333,16.728 C7.512,13.56 9.6,10.632 12.0853333,8.184 C14.528,5.74133333 17.5786667,3.69333333 20.912,2.288 C24.3866667,0.829333333 28.12,0.048 31.8746667,0.00266666667 C35.64,-0.0373333333 39.4053333,0.642666667 42.912,2.024 C46.288,3.352 49.4026667,5.32533333 52.0586667,7.8 C54.632,10.1866667 56.752,13.032 58.3146667,16.1706667 C59.6373333,18.8186667 60.56,21.7066667 61.0026667,24.6373333 C61.4826667,27.688 61.4826667,30.816 60.96,33.8266667 C60.5173333,36.6346667 59.5946667,39.4026667 58.3493333,41.968 C55.5413333,47.6266667 50.8853333,52.2826667 45.2293333,55.0933333 C43.824,55.776 42.3386667,56.376 40.816,56.856 L40.76,56.9173333 Z M42.1466667,45.464 L42.1733333,44.2106667 C42.1733333,43.368 42.1733333,42.5253333 42.0506667,41.696 C42.0106667,41.3733333 41.9306667,41.0933333 41.8506667,40.7733333 C43.336,39.5706667 44.5786667,38.0453333 45.5013333,36.32 C46.184,35.0373333 46.704,33.632 46.9866667,32.184 C47.3093333,30.5786667 47.3866667,28.896 47.1493333,27.2106667 C46.952,25.7253333 46.544,24.2826667 45.9466667,22.9173333 C45.1866667,21.2746667 44.1413333,19.7493333 42.8586667,18.464 C41.5333333,17.1813333 40.048,16.1386667 38.3626667,15.3733333 C36.5173333,14.5733333 34.5093333,14.0933333 32.504,14.0506667 C30.4986667,14.0106667 28.4506667,14.3733333 26.5653333,15.096 C24.88,15.7786667 23.3146667,16.7413333 21.952,17.984 C20.584,19.2266667 19.4613333,20.672 18.6586667,22.3146667 C17.9733333,23.6373333 17.496,25.0453333 17.2133333,26.528 C16.9333333,28.0533333 16.896,29.6186667 17.0933333,31.1413333 C17.2933333,32.6266667 17.696,34.072 18.296,35.432 C19.2186667,37.48 20.5813333,39.2853333 22.2693333,40.7706667 L22.0266667,41.8533333 C21.8666667,42.696 21.9066667,43.4986667 21.9066667,44.3786667 L21.9066667,45.504 C19.096,43.7813333 16.768,41.2906667 15.2053333,38.4026667 C14.28,36.7573333 13.64,34.992 13.2773333,33.144 C12.8346667,31.096 12.7573333,28.9733333 13.0373333,26.8853333 C13.2773333,25 13.8,23.1546667 14.5626667,21.4666667 C15.4853333,19.384 16.848,17.456 18.4533333,15.8106667 C20.0986667,14.1653333 22.024,12.8426667 24.1093333,11.92 C26.4373333,10.8773333 28.9626667,10.3146667 31.4933333,10.2346667 C34.064,10.192 36.632,10.6346667 38.9946667,11.56 C41.1626667,12.4 43.1306667,13.6426667 44.8533333,15.208 C46.536,16.7733333 47.984,18.616 49.024,20.6666667 C49.8666667,22.352 50.5093333,24.1573333 50.832,26.0026667 C51.1546667,27.9306667 51.232,29.8933333 50.952,31.8213333 C50.712,33.7066667 50.192,35.552 49.384,37.2773333 C47.8213333,40.7706667 45.464,43.496 42.1733333,45.464 L42.1466667,45.464 L42.1466667,45.464 Z M32.1466667,19.9306667 C36.0533333,19.9306667 39.224,23.0986667 39.224,27.0133333 C39.224,30.9413333 36.0533333,34.112 32.1466667,34.112 C28.2346667,34.112 25.0666667,30.9413333 25.0666667,27.0506667 C25.0666667,23.16 28.2346667,19.9866667 32.1466667,19.9866667 L32.1466667,19.9306667 L32.1466667,19.9306667 Z" id="Shape" fill="#000000" fill-rule="nonzero"></path>
    </g>
</svg>