<?xml version="1.0" encoding="UTF-8"?>
<svg width="724px" height="724px" viewBox="0 0 724 724" version="1.1" xmlns="http://www.w3.org/2000/svg" xmlns:xlink="http://www.w3.org/1999/xlink">
    <!-- Generator: Sketch 52.2 (67145) - http://www.bohemiancoding.com/sketch -->
    <title>Artboard</title>
    <desc>Created with Sketch.</desc>
    <g id="Artboard" stroke="none" stroke-width="1" fill="none" fill-rule="evenodd">
        <circle id="Oval_47" stroke="#0D3D91" stroke-width="2" cx="361.989211" cy="361.989211" r="353.989211"></circle>
        <circle id="Oval_46" stroke="#0D3D91" stroke-width="2" cx="362.999982" cy="361.999982" r="346.999982"></circle>
        <circle id="Oval_45" stroke="#0D3D91" stroke-width="2" cx="363.000017" cy="362.000017" r="339.000017"></circle>
        <circle id="Oval_44" stroke="#0D3D91" stroke-width="2" cx="362.988921" cy="361.988921" r="331.988921"></circle>
        <circle id="Oval_43" stroke="#0D3D91" stroke-width="2" cx="363.99955" cy="361.99955" r="324.99955"></circle>
        <circle id="Oval_42" stroke="#0D3D91" stroke-width="2" cx="364.000439" cy="362.000439" r="317.000439"></circle>
        <circle id="Oval_41" stroke="#0D3D91" stroke-width="2" cx="363.987741" cy="361.987741" r="309.987741"></circle>
        <circle id="Oval_48" stroke="#0D3D91" stroke-width="2" cx="362.000409" cy="362.000409" r="361.000409"></circle>
        <circle id="Oval_40" stroke="#0D3D91" stroke-width="2" cx="364.999885" cy="361.999885" r="302.999885"></circle>
        <circle id="Oval_39" stroke="#0D3D91" stroke-width="2" cx="364.987736" cy="361.987736" r="295.987736"></circle>
        <circle id="Oval_38" stroke="#0D3D91" stroke-width="2" cx="365.999305" cy="361.999305" r="288.999305"></circle>
        <circle id="Oval_37" stroke="#0D3D91" stroke-width="2" cx="366.000676" cy="362.000676" r="281.000676"></circle>
        <circle id="Oval_36" stroke="#0D3D91" stroke-width="2" cx="365.985996" cy="361.985996" r="273.985996"></circle>
        <circle id="Oval_35" stroke="#0D3D91" stroke-width="2" cx="366.99996" cy="361.99996" r="266.99996"></circle>
        <circle id="Oval_34" stroke="#0D3D91" stroke-width="2" cx="366.985994" cy="361.985994" r="259.985994"></circle>
        <circle id="Oval_33" stroke="#0D3D91" stroke-width="2" cx="367.999206" cy="361.999206" r="252.999206"></circle>
        <circle id="Oval_32" stroke="#0D3D91" stroke-width="2" cx="368.000769" cy="362.000769" r="245.000769"></circle>
        <circle id="Oval_31" stroke="#0D3D91" stroke-width="2" cx="367.983947" cy="361.983947" r="237.983947"></circle>
        <circle id="Oval_30" stroke="#0D3D91" stroke-width="2" cx="368.999825" cy="361.999825" r="230.999825"></circle>
        <circle id="Oval_29" stroke="#0D3D91" stroke-width="2" cx="369.000169" cy="362.000169" r="223.000169"></circle>
        <circle id="Oval_28" stroke="#0D3D91" stroke-width="2" cx="368.98302" cy="361.98302" r="215.98302"></circle>
        <circle id="Oval_27" stroke="#0D3D91" stroke-width="2" cx="369.999069" cy="361.999069" r="208.999069"></circle>
        <circle id="Oval_26" stroke="#0D3D91" stroke-width="2" cx="370.000896" cy="362.000896" r="201.000896"></circle>
        <circle id="Oval_25" stroke="#0D3D91" stroke-width="2" cx="369.980479" cy="361.980479" r="193.980479"></circle>
        <circle id="Oval_24" stroke="#0D3D91" stroke-width="2" cx="370.999487" cy="361.999487" r="186.999487"></circle>
        <circle id="Oval_23" stroke="#0D3D91" stroke-width="2" cx="371.000491" cy="362.000491" r="179.000491"></circle>
        <circle id="Oval_22" stroke="#0D3D91" stroke-width="2" cx="370.978578" cy="361.978578" r="171.978578"></circle>
        <circle id="Oval_21" stroke="#0D3D91" stroke-width="2" cx="371.998747" cy="361.998747" r="164.998747"></circle>
        <circle id="Oval_20" stroke="#0D3D91" stroke-width="2" cx="371.978472" cy="361.978472" r="157.978472"></circle>
        <circle id="Oval_19" stroke="#0D3D91" stroke-width="2" cx="372.99684" cy="361.99684" r="150.99684"></circle>
        <circle id="Oval_18" stroke="#0D3D91" stroke-width="2" cx="373.002993" cy="362.002993" r="143.002993"></circle>
        <circle id="Oval_17" stroke="#0D3D91" stroke-width="2" cx="372.97093" cy="361.97093" r="135.97093"></circle>
        <circle id="Oval_16" stroke="#0D3D91" stroke-width="2" cx="374" cy="362" r="129"></circle>
        <circle id="Oval_15" stroke="#0D3D91" stroke-width="2" cx="374" cy="362" r="121"></circle>
        <circle id="Oval_14" stroke="#0D3D91" stroke-width="2" cx="374" cy="362" r="113"></circle>
        <circle id="Oval_13" stroke="#0D3D91" stroke-width="2" cx="374" cy="362" r="105"></circle>
        <circle id="Oval_12" stroke="#0D3D91" stroke-width="2" cx="374" cy="362" r="97"></circle>
        <circle id="Oval_11" stroke="#0D3D91" stroke-width="2" cx="374" cy="362" r="89"></circle>
        <circle id="Oval_10" stroke="#0D3D91" stroke-width="2" cx="374" cy="362" r="81"></circle>
        <circle id="Oval_9" stroke="#0D3D91" stroke-width="2" cx="374" cy="362" r="73"></circle>
        <circle id="Oval_8" stroke="#0D3D91" stroke-width="2" cx="374" cy="362" r="65"></circle>
        <circle id="Oval_7" stroke="#0D3D91" stroke-width="2" cx="374" cy="362" r="57"></circle>
        <circle id="Oval_6" stroke="#0D3D91" stroke-width="2" cx="374" cy="362" r="49"></circle>
        <circle id="Oval_5" stroke="#0D3D91" stroke-width="2" cx="374" cy="362" r="41"></circle>
        <circle id="Oval_4" stroke="#0D3D91" stroke-width="2" cx="374" cy="362" r="33"></circle>
        <circle id="Oval_3" stroke="#0D3D91" stroke-width="2" cx="374" cy="362" r="25"></circle>
        <circle id="Oval_2" stroke="#0D3D91" stroke-width="2" cx="374" cy="362" r="17"></circle>
        <circle id="Oval_1" stroke="#0D3D91" stroke-width="2" cx="374" cy="362" r="9"></circle>
    </g>
</svg>
