<svg xmlns="http://www.w3.org/2000/svg" width="60" height="47" viewBox="0 0 60 47">
  <path fill="#000000" fill-rule="evenodd" d="M414.353967,738.018524 C417.275769,738.127885 421.250762,737.878295 425.905636,736.9738 C433.00006,735.595275 440.018812,732.966672 446.581973,728.788861 C458.227412,721.375903 467.340427,709.790544 472.94665,693.322264 C473.124631,692.799443 472.845084,692.231331 472.322264,692.05335 C471.799443,691.875369 471.231331,692.154916 471.05335,692.677736 C465.593829,708.715079 456.769993,719.932806 445.507993,727.101684 C439.169571,731.136436 432.384748,733.67743 425.524149,735.010521 C421.030177,735.88375 417.205972,736.123873 414.428773,736.019924 C414.247603,736.013143 414.127395,736.006552 414.071247,736.002541 C413.520366,735.963193 413.04189,736.377872 413.002541,736.928753 C412.963193,737.479634 413.377872,737.95811 413.928753,737.997459 C414.007173,738.00306 414.149933,738.010887 414.353967,738.018524 Z" transform="translate(-413 -692)"/>
</svg>
