<?xml version="1.0" encoding="UTF-8"?>
<svg width="64px" height="64px" viewBox="0 0 64 64" version="1.1" xmlns="http://www.w3.org/2000/svg" xmlns:xlink="http://www.w3.org/1999/xlink">
    <!-- Generator: Sketch 53 (72520) - https://sketchapp.com -->
    <title>google-podcast</title>
    <desc>Created with Sketch.</desc>
    <g id="google-podcast" stroke="none" stroke-width="1" fill="none" fill-rule="evenodd">
        <path d="M31.9432825,63.886565 C14.3014948,63.886565 4.99998727e-08,49.5850702 4.99998727e-08,31.9432825 C4.99998727e-08,14.3014947 14.3014948,7.10542736e-15 31.9432825,7.10542736e-15 C49.5850703,7.10542736e-15 63.886565,14.3014947 63.886565,31.9432825 C63.886565,49.5850702 49.5850703,63.886565 31.9432825,63.886565 Z M32,21 C30.3431458,21 29,22.3431458 29,24 L29,40 C29,41.6568542 30.3431458,43 32,43 C33.6568542,43 35,41.6568542 35,40 L35,24 C35,22.3431458 33.6568542,21 32,21 Z M22,19 C20.3431458,19 19,20.3431458 19,22 L19,31 C19,32.6568542 20.3431458,34 22,34 C23.6568542,34 25,32.6568542 25,31 L25,22 C25,20.3431458 23.6568542,19 22,19 Z M42,30 C40.3431458,30 39,31.3431458 39,33 L39,42 C39,43.6568542 40.3431458,45 42,45 C43.6568542,45 45,43.6568542 45,42 L45,33 C45,31.3431458 43.6568542,30 42,30 Z M32,9 C30.3431458,9 29,10.3431458 29,12 L29,15 C29,16.6568542 30.3431458,18 32,18 C33.6568542,18 35,16.6568542 35,15 L35,12 C35,10.3431458 33.6568542,9 32,9 Z M32,46 C30.3431458,46 29,47.3431458 29,49 L29,52 C29,53.6568542 30.3431458,55 32,55 C33.6568542,55 35,53.6568542 35,52 L35,49 C35,47.3431458 33.6568542,46 32,46 Z M42,18 C40.3431458,18 39,19.3431458 39,21 L39,24 C39,25.6568542 40.3431458,27 42,27 C43.6568542,27 45,25.6568542 45,24 L45,21 C45,19.3431458 43.6568542,18 42,18 Z M22,37 C20.3431458,37 19,38.3431458 19,40 L19,43 C19,44.6568542 20.3431458,46 22,46 C23.6568542,46 25,44.6568542 25,43 L25,40 C25,38.3431458 23.6568542,37 22,37 Z M12,28 C10.3431458,28 9,29.3431458 9,31 L9,34 C9,35.6568542 10.3431458,37 12,37 C13.6568542,37 15,35.6568542 15,34 L15,31 C15,29.3431458 13.6568542,28 12,28 Z M52,28 C50.3431458,28 49,29.3431458 49,31 L49,34 C49,35.6568542 50.3431458,37 52,37 C53.6568542,37 55,35.6568542 55,34 L55,31 C55,29.3431458 53.6568542,28 52,28 Z" id="Combined-Shape" fill="#000000" fill-rule="nonzero"></path>
    </g>
</svg>