<?xml version="1.0" encoding="utf-8"?>
<!-- Generator: Adobe Illustrator 20.1.0, SVG Export Plug-In . SVG Version: 6.00 Build 0)  -->
<!DOCTYPE svg PUBLIC "-//W3C//DTD SVG 1.1//EN" "http://www.w3.org/Graphics/SVG/1.1/DTD/svg11.dtd">
<svg version="1.1" id="Layer_1" xmlns="http://www.w3.org/2000/svg" xmlns:xlink="http://www.w3.org/1999/xlink" x="0px" y="0px"
	 width="32px" height="32px" viewBox="0 0 32 32" style="enable-background:new 0 0 32 32;" xml:space="preserve">
<path d="M0,21.7c0,0.4,0.1,0.7,0.4,0.9c0.3,0.2,0.6,0.3,0.9,0.2c0.3-0.1,0.5-0.2,0.6-0.3c0.1-0.2,0.2-0.4,0.2-0.8v-4.3
	c0-0.3-0.1-0.6-0.3-0.8c-0.2-0.2-0.5-0.3-0.8-0.3c-0.3,0-0.6,0.1-0.8,0.3C0.1,16.8,0,17.1,0,17.4V21.7L0,21.7z M3.4,23.5
	c0,0.3,0.1,0.5,0.3,0.6c0.2,0.1,0.5,0.2,0.8,0.2c0.3,0,0.6-0.1,0.8-0.2c0.2-0.1,0.3-0.4,0.3-0.6V13.5c0-0.3-0.1-0.6-0.3-0.8
	c-0.2-0.2-0.5-0.3-0.8-0.3c-0.3,0-0.6,0.1-0.8,0.3c-0.2,0.2-0.3,0.5-0.3,0.8V23.5z M6.8,24c0,0.3,0.1,0.5,0.3,0.6
	c0.2,0.1,0.5,0.2,0.8,0.2c0.3,0,0.6-0.1,0.8-0.2C8.9,24.5,9,24.3,9,24v-9.2c0-0.3-0.1-0.6-0.3-0.8c-0.2-0.2-0.5-0.3-0.8-0.3
	c-0.3,0-0.6,0.1-0.8,0.3c-0.2,0.2-0.3,0.5-0.3,0.8L6.8,24L6.8,24z M10.3,24.1c0,0.5,0.4,0.8,1.1,0.8c0.7,0,1.1-0.3,1.1-0.8V9.2
	c0-0.8-0.3-1.3-0.8-1.4c-0.3-0.1-0.7,0-1,0.3c-0.3,0.3-0.5,0.6-0.5,1.1L10.3,24.1L10.3,24.1z M13.7,24.5V8.3c0-0.5,0.2-0.8,0.5-0.9
	c0.7-0.2,1.3-0.2,2-0.2c1.5,0,2.9,0.4,4.2,1.1c1.3,0.7,2.4,1.7,3.2,2.9c0.8,1.2,1.3,2.6,1.4,4.1c0.6-0.3,1.3-0.4,1.9-0.4
	c1.4,0,2.6,0.5,3.6,1.5c1,1,1.5,2.2,1.5,3.5c0,1.4-0.5,2.6-1.5,3.6c-1,1-2.2,1.5-3.6,1.5l-13,0c-0.1,0-0.2-0.1-0.2-0.2
	C13.8,24.6,13.7,24.5,13.7,24.5L13.7,24.5z"/>
</svg>
