<?xml version="1.0" encoding="utf-8"?>
<!-- Generator: Adobe Illustrator 20.1.0, SVG Export Plug-In . SVG Version: 6.00 Build 0)  -->
<!DOCTYPE svg PUBLIC "-//W3C//DTD SVG 1.1//EN" "http://www.w3.org/Graphics/SVG/1.1/DTD/svg11.dtd">
<svg version="1.1" id="Layer_1" xmlns="http://www.w3.org/2000/svg" xmlns:xlink="http://www.w3.org/1999/xlink" x="0px" y="0px"
	 width="32px" height="32px" viewBox="0 0 32 32" style="enable-background:new 0 0 32 32;" xml:space="preserve">
<title>tes-icons</title>
<g>
	<path d="M20.4,12.3c-0.6,0-1,0.5-0.8,0.9l0,0c0.3,0.9,0.4,1.9,0.4,2.8c0,1-0.1,2-0.4,3c-0.2,0.4,0.3,0.8,0.8,0.9h0.3
		c0.4,0,0.9-0.2,1.1-0.6c0.4-1.1,0.5-2.1,0.5-3.2S22,14,21.7,12.9C21.5,12.5,21,12.2,20.4,12.3z"/>
	<path d="M28.6,5.8c-0.4-0.4-1-0.5-1.5-0.4c-0.5,0.2-0.8,0.6-0.5,1l0,0c2,2.8,3.2,6.1,3.2,9.6s-1.2,6.8-3.2,9.6
		c-0.3,0.4,0,0.8,0.5,1c0.2,0,0.4,0,0.4,0c0.4,0,0.8-0.2,1.1-0.4c2.1-2.8,3.3-6.4,3.4-10C31.9,12.4,30.8,8.8,28.6,5.8z"/>
	<path d="M25.6,10c-0.4-0.4-0.9-0.6-1.4-0.4c-0.6,0.2-0.9,0.5-0.7,1c0.9,1.8,1.4,3.6,1.4,5.6s-0.5,3.9-1.4,5.7
		c-0.2,0.4,0.1,0.8,0.7,1h0.4c0.4,0,0.8-0.2,1.1-0.5c1-1.9,1.5-4,1.5-6.1S26.6,11.9,25.6,10z"/>
</g>
<path d="M7,10H1c-0.6,0-1,0.4-1,1v10c0,0.6,0.4,1,1,1h6l8.9,6.4c0.7,0.5,1.6,0,1.6-0.8V4.4c0-0.8-0.9-1.3-1.6-0.8L7,10z"/>
</svg>
