<?xml version="1.0" encoding="utf-8"?>
<!-- Generator: Adobe Illustrator 20.1.0, SVG Export Plug-In . SVG Version: 6.00 Build 0)  -->
<!DOCTYPE svg PUBLIC "-//W3C//DTD SVG 1.1//EN" "http://www.w3.org/Graphics/SVG/1.1/DTD/svg11.dtd">
<svg version="1.1" id="Layer_1" xmlns="http://www.w3.org/2000/svg" xmlns:xlink="http://www.w3.org/1999/xlink" x="0px" y="0px"
	 width="32px" height="32px" viewBox="0 0 32 32" style="enable-background:new 0 0 32 32;" xml:space="preserve">
<g>
	<path d="M23.2,8.8c-0.7-0.9-1.4-1.4-2.5-2c-1.1-0.5-2-0.7-3.1-0.7c-0.5,0-1.1,0-1.4,0.2c-0.5,0-0.9,0.2-1.4,0.5
		C14.4,7,14,7.4,13.7,7.7c-0.4,0.4-0.4,0.9-0.4,1.4c0,0.5,0.2,0.9,0.4,1.3c0.2,0.4,0.5,0.7,0.9,0.9c0.4,0.2,0.9,0.5,1.4,0.7
		c0.5,0.2,1.3,0.4,2,0.7c1.1,0.4,2.2,0.7,3.2,1.1c1.1,0.4,2.2,0.9,3.1,1.6c0.9,0.7,1.6,1.6,2.3,2.5c0.5,1.1,0.9,2.3,0.9,3.8
		c0,1.8-0.4,3.2-0.9,4.7c-0.7,1.3-1.6,2.3-2.7,3.2c-1.1,0.9-2.3,1.4-3.8,1.8c-1.4,0.4-2.9,0.5-4.3,0.5c-2.2,0-4.3-0.4-6.5-1.1
		c-2-0.7-3.8-1.8-5.2-3.2l4.9-5c0.7,0.9,1.8,1.6,3.1,2.3c1.3,0.5,2.5,0.9,3.6,0.9c0.5,0,1.1,0,1.6-0.2c0.5-0.2,0.9-0.4,1.4-0.5
		c0.4-0.2,0.7-0.5,0.9-1.1c0.2-0.4,0.4-0.9,0.4-1.6c0-0.5-0.2-1.1-0.4-1.4c-0.4-0.4-0.7-0.7-1.3-1.1c-0.5-0.4-1.3-0.7-2-0.9
		c-0.7-0.4-1.6-0.5-2.7-0.9c-0.9-0.4-2-0.7-2.9-1.1C9.9,16.7,9,16,8.3,15.5C7.6,14.7,7,14,6.5,12.9C5.9,12,5.8,10.8,5.8,9.3
		c0-1.8,0.4-3.2,1.1-4.3C7.6,3.8,8.4,2.9,9.5,2c1.1-0.7,2.3-1.4,3.8-1.8c1.6,0,3.1-0.2,4.5-0.2c1.8,0,3.6,0.4,5.4,0.9
		c1.8,0.7,3.4,1.6,4.7,2.9L23.2,8.8z"/>
</g>
</svg>
