<?xml version="1.0" encoding="UTF-8"?>
<svg width="48px" height="48px" viewBox="0 0 48 48" version="1.1" xmlns="http://www.w3.org/2000/svg" xmlns:xlink="http://www.w3.org/1999/xlink">
    <!-- Generator: Sketch 52.2 (67145) - http://www.bohemiancoding.com/sketch -->
    <title>icon-eye</title>
    <desc>Created with Sketch.</desc>
    <g id="icon-eye" stroke="none" stroke-width="1" fill="none" fill-rule="evenodd">
        <path d="M46.9157647,23.051 L47.3703529,23.997 L46.9157647,24.942 C42.1665882,34.839 33.3383529,40.985 23.8767059,40.985 C14.4150588,40.985 5.58682353,34.838 0.837647059,24.942 L0.383058824,23.997 L0.837647059,23.051 C5.58776471,13.153 14.4150588,7.006 23.8767059,7.006 C33.3383529,7.006 42.1665882,13.154 46.9157647,23.051 Z M23.8767059,36.822 C31.5567059,36.822 38.7821176,31.935 42.9487059,23.998 C38.7821176,16.061 31.5567059,11.174 23.8767059,11.174 C16.1967059,11.174 8.97223529,16.06 4.80564706,23.998 C8.97223529,31.935 16.1967059,36.822 23.8767059,36.822 Z M23.8767059,30.498 C20.4969831,30.498 17.7571765,27.5869554 17.7571765,23.996 C17.7571765,20.4050446 20.4969831,17.494 23.8767059,17.494 C27.2564287,17.494 29.9962353,20.4050446 29.9962353,23.996 C29.9962353,27.5869554 27.2564287,30.498 23.8767059,30.498 Z" id="Shape" fill="#000000" fill-rule="nonzero"></path>
    </g>
</svg>