<?xml version="1.0" encoding="utf-8"?>
<!-- Generator: Adobe Illustrator 20.1.0, SVG Export Plug-In . SVG Version: 6.00 Build 0)  -->
<!DOCTYPE svg PUBLIC "-//W3C//DTD SVG 1.1//EN" "http://www.w3.org/Graphics/SVG/1.1/DTD/svg11.dtd">
<svg version="1.1" id="Layer_1" xmlns="http://www.w3.org/2000/svg" xmlns:xlink="http://www.w3.org/1999/xlink" x="0px" y="0px"
	 width="32px" height="32px" viewBox="0 0 32 32" style="enable-background:new 0 0 32 32;" xml:space="preserve">
<g>
	<path d="M28.5,0L10.9,4.8v20.1c-0.6-0.5-1.6-0.8-2.7-0.8c-1.9,0-4.8,1.3-4.8,4s2.7,4,4.8,4c3.6,0,4.6-2.9,4.6-3.5
		c0-0.2,0-0.3,0-0.5l0,0V11.4l13.9-3.8v14.1c0,0-1.3-1-3-1c-2.9,0-4.8,1.9-4.8,4c0,2.9,2.9,4,4.8,4c2.5,0,4.8-1.7,4.8-4v-0.2l0,0V0z
		"/>
</g>
</svg>
