<?xml version="1.0" encoding="utf-8"?>
<!-- Generator: Adobe Illustrator 20.1.0, SVG Export Plug-In . SVG Version: 6.00 Build 0)  -->
<!DOCTYPE svg PUBLIC "-//W3C//DTD SVG 1.1//EN" "http://www.w3.org/Graphics/SVG/1.1/DTD/svg11.dtd">
<svg version="1.1" id="Layer_1" xmlns="http://www.w3.org/2000/svg" xmlns:xlink="http://www.w3.org/1999/xlink" x="0px" y="0px"
	 width="32px" height="32px" viewBox="0 0 32 32" style="enable-background:new 0 0 32 32;" xml:space="preserve">
<g>
	<g>
		<path d="M22.3,19.3C22,19.7,22,19.9,22,20.3c0,0.4-0.2,0.6-0.2,0.8s0,0.4,0.2,0.6c0.2,0.2,0.4,0.2,0.6,0.2c0.6,0,1.3-0.2,1.9-0.6
			c0.6-0.4,1.3-1.1,1.7-1.9c0.4-0.8,0.8-1.7,1.3-3c0.4-1.1,0.4-2.3,0.4-3.6c0-1.5-0.2-3-0.8-4.2s-1.5-2.3-2.5-3.2S22.3,4,21,3.4
			c-1.3-0.4-2.8-0.6-4.5-0.6c-1.9,0-3.4,0.4-4.9,1.1S8.9,5.3,7.8,6.6s-1.9,2.5-2.5,4c-0.6,1.5-0.8,3.2-0.8,5.1c0,2.1,0.4,4,1.1,5.5
			c0.6,1.7,1.5,3.2,2.5,4.2c1.1,1.1,2.5,2.1,4,2.8s3.2,1.1,4.9,1.1c1.9,0,3.6-0.4,5.3-1.1s3.2-1.7,4.2-3.2h3
			c-1.3,2.1-3.2,3.8-5.3,5.1C21.8,31.4,19.5,32,17,32c-2.1,0-4.2-0.4-6.1-1.3c-1.9-0.8-3.6-1.9-5.1-3.4c-1.5-1.5-2.5-3.2-3.4-5.1
			s-1.1-4.5-1.1-7c0-2.1,0.4-4.2,1.3-5.9c0.8-1.9,1.9-3.4,3.4-4.9c1.5-1.5,3-2.5,4.9-3.2C12.7,0.4,14.6,0,16.7,0
			c1.9,0,3.6,0.2,5.3,0.8s3.2,1.5,4.5,2.5c1.3,1.1,2.3,2.3,3.2,4c0.8,1.5,1.1,3.2,1.1,5.1c0,2.1-0.4,4-1.1,5.5c-0.6,1.5-1.7,3-2.5,4
			c-1.1,1.1-2.1,1.9-3.2,2.3c-1.1,0.4-2.1,0.8-3,0.8c-0.6,0-1.3-0.2-1.7-0.6c-0.4-0.4-0.8-1.1-0.8-1.9l0,0c-0.6,0.6-1.3,1.3-2.1,1.7
			c-0.8,0.4-1.7,0.6-2.5,0.6s-1.7-0.2-2.5-0.4c-0.8-0.4-1.5-0.8-1.9-1.5c-0.6-0.6-1.1-1.3-1.3-2.1c-0.2-0.8-0.4-1.7-0.4-2.5
			c0-1.3,0.2-2.8,0.6-4c0.4-1.3,1.1-2.5,1.9-3.6c0.8-1.1,1.7-1.9,3-2.5c1.1-0.6,2.3-1.1,3.8-1.1c1.1,0,1.9,0.2,2.8,0.6
			c0.8,0.4,1.5,1.3,2.1,2.3l0.8-2.3h3L22.3,19.3z M14.4,21.8c0.8,0,1.7-0.2,2.3-0.8c0.6-0.4,1.3-1.1,1.9-1.9
			c0.4-0.8,0.8-1.5,1.3-2.5s0.4-1.7,0.4-2.5c0-0.4,0-1.1-0.2-1.5s-0.4-0.8-0.6-1.3c-0.2-0.4-0.6-0.6-1.1-0.8
			c-0.4-0.2-0.8-0.2-1.3-0.2c-0.8,0-1.7,0.2-2.3,0.6c-0.6,0.4-1.3,1.1-1.9,1.7c-0.4,0.6-0.8,1.5-1.3,2.3c-0.2,0.8-0.4,1.7-0.4,2.5
			c0,1.1,0.2,2.1,0.8,2.8C12.7,20.8,13.4,21.8,14.4,21.8z"/>
	</g>
</g>
</svg>
