<?xml version="1.0" encoding="utf-8"?>
<!-- Generator: Adobe Illustrator 20.1.0, SVG Export Plug-In . SVG Version: 6.00 Build 0)  -->
<!DOCTYPE svg PUBLIC "-//W3C//DTD SVG 1.1//EN" "http://www.w3.org/Graphics/SVG/1.1/DTD/svg11.dtd">
<svg version="1.1" id="Layer_1" xmlns="http://www.w3.org/2000/svg" xmlns:xlink="http://www.w3.org/1999/xlink" x="0px" y="0px"
	 width="36px" height="36px" viewBox="0 0 36 36" style="enable-background:new 0 0 36 36;" xml:space="preserve">
<path d="M4,13.7c-1.5,0-2.7,1.2-2.7,2.7C1.3,17.8,2.5,19,4,19c7.1,0,13,5.8,12.9,13c0,1.5,1.2,2.7,2.7,2.7c1.5,0,2.7-1.2,2.7-2.7
	C22.3,21.9,14.1,13.7,4,13.7L4,13.7z"/>
<path d="M4,0C2.6,0,1.4,1.2,1.4,2.7c0,1.5,1.2,2.7,2.7,2.7c14.7,0,26.6,12,26.6,26.7c0,1.5,1.2,2.7,2.7,2.7c1.5,0,2.7-1.2,2.7-2.7
	C36,14.4,21.7,0,4,0L4,0z"/>
<ellipse cx="4.7" cy="31.3" rx="4.7" ry="4.7"/>
</svg>
