<?xml version="1.0" encoding="utf-8"?>
<!-- Generator: Adobe Illustrator 20.1.0, SVG Export Plug-In . SVG Version: 6.00 Build 0)  -->
<!DOCTYPE svg PUBLIC "-//W3C//DTD SVG 1.1//EN" "http://www.w3.org/Graphics/SVG/1.1/DTD/svg11.dtd">
<svg version="1.1" id="Layer_1" xmlns="http://www.w3.org/2000/svg" xmlns:xlink="http://www.w3.org/1999/xlink" x="0px" y="0px"
	 width="32px" height="32px" viewBox="0 0 32 32" style="enable-background:new 0 0 32 32;" xml:space="preserve">
<title>tes-icons</title>
<path d="M11,32H5c-0.6,0-1-0.4-1-1V1c0-0.6,0.4-1,1-1h6c0.6,0,1,0.4,1,1v30C12,31.6,11.6,32,11,32z"/>
<path d="M27,32h-6c-0.6,0-1-0.4-1-1V1c0-0.6,0.4-1,1-1h6c0.6,0,1,0.4,1,1v30C28,31.6,27.6,32,27,32z"/>
</svg>
