<?xml version="1.0" encoding="UTF-8"?>
<svg width="64px" height="64px" viewBox="0 0 64 64" version="1.1" xmlns="http://www.w3.org/2000/svg" xmlns:xlink="http://www.w3.org/1999/xlink">
    <!-- Generator: Sketch 53 (72520) - https://sketchapp.com -->
    <title>itunes</title>
    <desc>Created with Sketch.</desc>
    <g id="itunes" stroke="none" stroke-width="1" fill="none" fill-rule="evenodd">
        <path d="M32,64 C14.326888,64 -4.61852778e-14,49.673112 -4.61852778e-14,32 C-4.61852778e-14,14.326888 14.326888,1.42108547e-14 32,1.42108547e-14 C49.673112,1.42108547e-14 64,14.326888 64,32 C64,49.673112 49.673112,64 32,64 Z M45.1485075,10.9719882 C44.9614586,10.9721623 44.313282,11.0642386 43.7080084,11.1769882 C41.031362,11.675552 25.2538467,14.8915752 24.9845073,14.9934881 C24.5676927,15.1512099 24.1545057,15.5259924 23.9585075,15.9239881 L23.7925073,16.2609881 L23.7570073,28.1889876 C23.7234137,39.4760275 23.7143554,40.1322476 23.5935073,40.4009887 C23.4096519,40.809831 23.001675,41.1975378 22.6255073,41.3209887 C22.4472153,41.379495 21.7423749,41.5413049 21.0590075,41.680487 C17.8933576,42.3252409 16.7176679,42.7897401 15.7230076,43.7889874 C15.1582918,44.3562962 14.7398539,45.1306501 14.5590076,45.9434885 C14.3862112,46.7201771 14.4441865,47.8828881 14.6905076,48.5894865 C15.2045717,50.064154 16.3448784,51.1092638 17.8800075,51.5114884 C19.3288883,51.8911185 22.0416343,51.4688747 23.4290073,50.6479876 C24.0090009,50.3048145 24.7549486,49.5841924 25.1430074,48.9919876 C25.2965299,48.7576837 25.527609,48.2855045 25.6565066,47.9429867 C26.1082134,46.7423134 26.0990128,46.9985387 26.0995069,35.7004883 C26.0998934,28.3443694 26.122744,25.3569339 26.1805078,25.087488 C26.2784432,24.6308196 26.5833289,24.2959053 27.0045078,24.1824881 C27.3835107,24.0804396 42.5757127,21.0065412 43.0030074,20.945488 C43.4052602,20.887986 43.785881,21.0318117 43.9685063,21.3104882 C44.0916576,21.4984654 44.0991226,21.8704841 44.117506,28.6409889 C44.1387156,36.4338618 44.1478317,36.2511878 43.7340077,36.7429869 C43.4330772,37.1006265 43.0570567,37.2389715 41.5130081,37.561488 C39.1636782,38.0522144 38.3595464,38.2853254 37.4600059,38.7349868 C36.3366037,39.2965587 35.7126421,39.9118982 35.230507,40.9339884 C34.8895202,41.656871 34.7620399,42.198741 34.7630075,42.9184876 C34.7652424,44.2052536 35.199083,45.2107576 36.1775074,46.194988 C36.8501729,46.87166 37.4648827,47.2260997 38.3130081,47.425987 C39.2658401,47.6505579 41.2059002,47.5026027 42.533506,47.1039877 C44.4121389,46.5399403 45.7384262,45.1725752 46.2815072,43.2409887 L46.4415072,42.6729887 L46.4625069,27.4434875 C46.4783738,16.0381347 46.4632365,12.1426672 46.4015072,11.9299881 C46.2243091,11.3194972 45.7687597,10.9714173 45.1485075,10.9719882 Z" id="Combined-Shape" fill="#000000" fill-rule="nonzero"></path>
    </g>
</svg>