<?xml version="1.0" encoding="utf-8"?>
<!-- Generator: Adobe Illustrator 19.1.0, SVG Export Plug-In . SVG Version: 6.00 Build 0)  -->
<!DOCTYPE svg PUBLIC "-//W3C//DTD SVG 1.1//EN" "http://www.w3.org/Graphics/SVG/1.1/DTD/svg11.dtd">
<svg version="1.1" id="Layer_1" xmlns="http://www.w3.org/2000/svg" xmlns:xlink="http://www.w3.org/1999/xlink" x="0px" y="0px"
	 width="60px" height="60px" viewBox="0 0 60 60" enable-background="new 0 0 60 60" xml:space="preserve">
<path d="M56,15C47.7,0.7,29.3-4.3,15,4C0.7,12.3-4.3,30.7,4,45s26.6,19.3,41,11C59.3,47.7,64.3,29.4,56,15z M11,32.6H8.3V17h11.6
	v2.5H11v4.2h7.8v2.5H11V32.6z M17.2,43.8L15.8,42l12.1-9.5l-6.6-1.6l17.1-14.4l1.5,1.8L26.3,29.7l6.8,1.7L17.2,43.8z M45.4,42.1
	c-4.5,0-7.9-3.5-7.9-8v0c0-4.4,3.3-8,8-8c2.9,0,4.6,1,6.1,2.4l-1.8,2c-1.2-1.2-2.6-1.9-4.4-1.9c-3,0-5.1,2.4-5.1,5.5v0
	c0,3,2.2,5.5,5.1,5.5c1.9,0,3.1-0.8,4.5-2l1.8,1.8C50.1,41,48.3,42.1,45.4,42.1z"/>
<g>
</g>
<g>
</g>
<g>
</g>
<g>
</g>
<g>
</g>
</svg>
