<?xml version="1.0" encoding="utf-8"?>
<!-- Generator: Adobe Illustrator 19.1.0, SVG Export Plug-In . SVG Version: 6.00 Build 0)  -->
<!DOCTYPE svg PUBLIC "-//W3C//DTD SVG 1.1//EN" "http://www.w3.org/Graphics/SVG/1.1/DTD/svg11.dtd">
<svg version="1.1" id="Layer_1" xmlns="http://www.w3.org/2000/svg" xmlns:xlink="http://www.w3.org/1999/xlink" x="0px" y="0px"
	 width="100px" height="138px" viewBox="0 0 100 138" enable-background="new 0 0 100 138" xml:space="preserve">
<g>
	<path d="M92.2,77.1L92.2,77.1l2.1-3.6l0,0c3.6-7,5.7-14.9,5.7-23.3c0-27-21.3-49-47.9-50.1V0h-4.2v0.1C21.3,1.2,0,23.2,0,50.2
		c0,8.4,2.1,16.3,5.7,23.3l0,0l2.1,3.6l0,0c5.3,8.4,13.1,15.1,22.2,19.1H0V138h100V96.2H70C79.2,92.2,86.9,85.5,92.2,77.1z
		 M82.4,17.7c8.7,8.7,13.4,20.2,13.4,32.5c0,7.5-1.8,14.7-5.1,21.2L52.1,49V4.2C63.5,4.7,74.2,9.5,82.4,17.7z M4.2,50.2
		c0-12.3,4.8-23.8,13.4-32.5C25.8,9.5,36.5,4.7,47.9,4.2V49L9.3,71.4C5.9,64.9,4.2,57.7,4.2,50.2z M17.6,82.7
		c-2.4-2.4-4.4-5-6.2-7.7L50,52.6L88.6,75c-1.8,2.8-3.8,5.4-6.2,7.7C73.8,91.4,62.2,96.2,50,96.2C37.8,96.2,26.3,91.4,17.6,82.7z
		 M95.8,100.4v33.5H4.2v-33.5H95.8z"/>
	<path d="M73.6,51c4.9,0,7.9-1.8,10.6-4.7l-3-3c-2.3,2.1-4.3,3.4-7.5,3.4c-5,0-8.7-4.2-8.7-9.4v-0.1c0-5.2,3.6-9.3,8.7-9.3
		c3,0,5.2,1.3,7.3,3.3l3-3.4c-2.5-2.4-5.4-4.1-10.3-4.1c-7.9,0-13.5,6.1-13.5,13.6v0.1C60.2,45,65.9,51,73.6,51z"/>
	<polygon points="39.3,68.9 47.7,68.9 47.7,91 52.3,91 52.3,68.9 60.6,68.9 60.6,64.6 39.3,64.6 	"/>
	<polygon points="38.9,28.4 38.9,24.2 19.3,24.2 19.3,50.5 24,50.5 24,39.8 37.2,39.8 37.2,35.6 24,35.6 24,28.4 	"/>
</g>
<g>
</g>
<g>
</g>
<g>
</g>
<g>
</g>
<g>
</g>
</svg>
