<?xml version="1.0" encoding="UTF-8"?>
<svg width="256px" height="256px" viewBox="0 0 256 256" version="1.1" xmlns="http://www.w3.org/2000/svg" xmlns:xlink="http://www.w3.org/1999/xlink">
    <!-- Generator: Sketch 53 (72520) - https://sketchapp.com -->
    <title>rss</title>
    <desc>Created with Sketch.</desc>
    <g id="Page-1" stroke="none" stroke-width="1" fill="none" fill-rule="evenodd">
        <path d="M48,0 L208,0 C234.509668,-4.86974701e-15 256,21.490332 256,48 L256,208 C256,234.509668 234.509668,256 208,256 L48,256 C21.490332,256 3.24649801e-15,234.509668 0,208 L0,48 C-3.24649801e-15,21.490332 21.490332,4.86974701e-15 48,0 Z M64,224 C81.673112,224 96,209.673112 96,192 C96,174.326888 81.673112,160 64,160 C46.326888,160 32,174.326888 32,192 C32,209.673112 46.326888,224 64,224 Z M32,128 C85.019336,128 128,170.980664 128,224 L160,224 C160,153.307552 102.692448,96 32,96 L32,128 Z M32,64 C74.4346384,64 115.131264,80.8570945 145.137085,110.862915 C175.142906,140.868736 192,181.565362 192,224 L224,224 C224,117.961328 138.038672,32 32,32 L32,64 Z" id="rss" fill="#000000" fill-rule="nonzero"></path>
    </g>
</svg>