<?xml version="1.0" encoding="UTF-8"?>
<svg width="64px" height="64px" viewBox="0 0 64 64" version="1.1" xmlns="http://www.w3.org/2000/svg" xmlns:xlink="http://www.w3.org/1999/xlink">
    <!-- Generator: Sketch 53 (72520) - https://sketchapp.com -->
    <title>spotify</title>
    <desc>Created with Sketch.</desc>
    <g id="spotify" stroke="none" stroke-width="1" fill="none" fill-rule="evenodd">
        <path d="M32,0 C49.673695,0.0021835551 64,14.3284886 64,32 C64,49.673695 49.673695,64 32,64 C14.326305,64 0,49.673695 0,32 C0,14.326305 14.326305,0 32,0 Z M46.6756738,46.1516206 C47.2521324,45.2126919 46.9529853,43.9877175 46.0140566,43.4090754 C37.5789833,38.2558854 27.1219379,37.0571136 14.9333333,39.8411464 C13.8568407,40.0857045 13.1864893,41.1556465 13.433231,42.2299556 C13.6777892,43.3042648 14.7477311,43.9767997 15.8220403,43.730058 C26.9603548,41.1862163 36.4195155,42.223405 43.9331286,46.8154214 C44.8720573,47.3896963 46.1013988,47.0949164 46.6756738,46.1516206 Z M50.5907881,37.4414193 C51.3135449,36.2688502 50.9423405,34.733811 49.7675879,34.0110542 C39.8913681,27.9407711 25.442784,26.233231 13.8219038,29.7596725 C12.5052201,30.1614466 11.7606278,31.5523712 12.1580348,32.8712385 C12.5598089,34.1879222 13.9529171,34.9325145 15.2717844,34.5329239 C25.4449676,31.445377 38.5593995,32.9760491 47.1582395,38.262436 C48.3308086,38.9830092 49.8680314,38.616172 50.5907881,37.4414193 Z M50.9270556,28.3665643 C52.3463664,29.2116001 54.1871034,28.7421358 55.0277721,27.3184579 C55.8706244,25.899147 55.4033436,24.0627772 53.9818492,23.2177414 C42.1076766,16.1692255 23.3181849,15.5076083 12.0139202,18.9379734 C10.4308427,19.4183555 9.53995223,21.0909587 10.0181508,22.6718526 C10.4963494,24.2527465 12.1689526,25.1458205 13.7498465,24.6654384 C23.59768,21.678335 40.6119413,22.2416923 50.9270556,28.3665643 Z" id="Shape" fill="#000000" fill-rule="nonzero"></path>
    </g>
</svg>