<svg xmlns="http://www.w3.org/2000/svg" width="433" height="45" viewBox="0 0 433 45">
  <path fill="#000000" fill-rule="evenodd" d="M591.22,213 L591.22,177.9 C591.22,176.699994 590.860004,176.1 590.14,176.1 L585.7,176.1 L585.7,172.32 L604.54,172.32 L604.54,176.1 L600.28,176.1 C599.479996,176.1 599.08,176.699994 599.08,177.9 L599.08,213 L591.22,213 Z M622.66,213 L622.66,192.66 C622.66,191.459994 622.260004,190.86 621.46,190.86 L616.12,190.86 C615.279996,190.86 614.86,191.459994 614.86,192.66 L614.86,213 L607,213 L607,172.32 L614.86,172.32 L614.86,185.28 C614.86,186.440006 615.279996,187.02 616.12,187.02 L621.46,187.02 C622.260004,187.02 622.66,186.440006 622.66,185.28 L622.66,172.32 L630.52,172.32 L630.52,213 L622.66,213 Z M641.74,213 L633.94,213 L633.94,172.32 L641.74,172.32 L641.74,213 Z M664,207.42 C664,209.300009 663.550005,210.699995 662.65,211.62 C661.749996,212.540005 660.540008,213 659.02,213 L644.8,213 L644.8,194.46 L652.66,194.46 C656.940021,194.46 659.08,192.660018 659.08,189.06 C659.08,185.299981 657.580015,183.42 654.58,183.42 L649.06,183.42 C646.459987,183.42 645.16,181.600018 645.16,177.96 C645.16,177.319997 645.259999,176.660003 645.46,175.98 C645.660001,175.299997 645.929998,174.690003 646.27,174.15 C646.610002,173.609997 647.019998,173.170002 647.5,172.83 C647.980002,172.489998 648.499997,172.32 649.06,172.32 L660.82,172.32 L660.82,176.1 L652.9,176.1 C651.779994,176.1 651.22,176.719994 651.22,177.96 C651.22,179.080006 651.779994,179.64 652.9,179.64 L659.26,179.64 C662.420016,179.64 664,181.519981 664,185.28 L664,207.42 Z M704.98,213 L689.32,213 C686.679987,213 685.36,211.140019 685.36,207.42 L685.36,177.9 C685.36,174.179981 686.679987,172.32 689.32,172.32 L704.98,172.32 L704.98,176.1 L694.48,176.1 C693.639996,176.1 693.22,176.699994 693.22,177.9 L693.22,184.68 C693.22,185.880006 693.639996,186.48 694.48,186.48 L701.56,186.48 L701.56,190.26 L694.48,190.26 C693.639996,190.26 693.22,190.879994 693.22,192.12 L693.22,199.98 C693.22,201.220006 693.639996,201.84 694.48,201.84 L704.98,201.84 L704.98,213 Z M729.52,172.32 L724.78,213 L711.52,213 L706.78,172.32 L715.6,172.32 L718,200.22 C718.08,201.500006 718.519996,202.14 719.32,202.14 C719.920003,202.14 720.279999,201.500006 720.4,200.22 L722.92,172.32 L729.52,172.32 Z M750.7,213 L735.04,213 C732.399987,213 731.08,211.140019 731.08,207.42 L731.08,177.9 C731.08,174.179981 732.399987,172.32 735.04,172.32 L750.7,172.32 L750.7,176.1 L740.2,176.1 C739.359996,176.1 738.94,176.699994 738.94,177.9 L738.94,184.68 C738.94,185.880006 739.359996,186.48 740.2,186.48 L747.28,186.48 L747.28,190.26 L740.2,190.26 C739.359996,190.26 738.94,190.879994 738.94,192.12 L738.94,199.98 C738.94,201.220006 739.359996,201.84 740.2,201.84 L750.7,201.84 L750.7,213 Z M773.68,213 L763.72,191.64 C763.279998,190.839996 762.860002,190.44 762.46,190.44 C761.819997,190.44 761.5,191.179993 761.5,192.66 L761.5,213 L753.64,213 L753.64,172.32 L762.1,172.32 L771.94,193.68 C772.220001,194.440004 772.639997,194.82 773.2,194.82 C773.800003,194.82 774.1,194.100007 774.1,192.66 L774.1,172.32 L781.96,172.32 L781.96,213 L773.68,213 Z M793.12,213 L785.32,213 L785.32,172.32 L793.12,172.32 L793.12,213 Z M816.64,213 L806.68,191.64 C806.239998,190.839996 805.820002,190.44 805.42,190.44 C804.779997,190.44 804.46,191.179993 804.46,192.66 L804.46,213 L796.6,213 L796.6,172.32 L805.06,172.32 L814.9,193.68 C815.180001,194.440004 815.599997,194.82 816.16,194.82 C816.760003,194.82 817.06,194.100007 817.06,192.66 L817.06,172.32 L824.92,172.32 L824.92,213 L816.64,213 Z M832.18,213 C831.019994,213 830.080004,212.470005 829.36,211.41 C828.639996,210.349995 828.28,209.020008 828.28,207.42 L828.28,177.9 C828.28,174.179981 829.579987,172.32 832.18,172.32 L849.82,172.32 L849.82,176.1 L837.28,176.1 C836.479996,176.1 836.08,176.699994 836.08,177.9 L836.08,199.98 C836.08,201.220006 836.479996,201.84 837.28,201.84 L841.78,201.84 C842.660004,201.84 843.1,201.220006 843.1,199.98 L843.1,190.74 L850.48,190.74 L850.48,213 L832.18,213 Z M857.44,178.14 C857.36,178.580002 857.170002,178.909999 856.87,179.13 C856.569999,179.350001 856.320001,179.46 856.12,179.46 L854.5,179.46 C853.659996,179.46 853.28,179.020004 853.36,178.14 L853.66,170.52 C853.7,169.839997 853.789999,169.370001 853.93,169.11 C854.070001,168.849999 854.459997,168.72 855.1,168.72 L857.8,168.72 C858.520004,168.72 858.88,169.319994 858.88,170.52 L857.44,178.14 Z M880.42,207.42 C880.42,209.300009 879.970005,210.699995 879.07,211.62 C878.169996,212.540005 876.960008,213 875.44,213 L861.22,213 L861.22,194.46 L869.08,194.46 C873.360021,194.46 875.5,192.660018 875.5,189.06 C875.5,185.299981 874.000015,183.42 871,183.42 L865.48,183.42 C862.879987,183.42 861.58,181.600018 861.58,177.96 C861.58,177.319997 861.679999,176.660003 861.88,175.98 C862.080001,175.299997 862.349998,174.690003 862.69,174.15 C863.030002,173.609997 863.439998,173.170002 863.92,172.83 C864.400002,172.489998 864.919997,172.32 865.48,172.32 L877.24,172.32 L877.24,176.1 L869.32,176.1 C868.199994,176.1 867.64,176.719994 867.64,177.96 C867.64,179.080006 868.199994,179.64 869.32,179.64 L875.68,179.64 C878.840016,179.64 880.42,181.519981 880.42,185.28 L880.42,207.42 Z M920.56,207.42 C920.56,209.300009 920.110005,210.699995 919.21,211.62 C918.309996,212.540005 917.100008,213 915.58,213 L901.36,213 L901.36,194.46 L909.22,194.46 C913.500021,194.46 915.64,192.660018 915.64,189.06 C915.64,185.299981 914.140015,183.42 911.14,183.42 L905.62,183.42 C903.019987,183.42 901.72,181.600018 901.72,177.96 C901.72,177.319997 901.819999,176.660003 902.02,175.98 C902.220001,175.299997 902.489998,174.690003 902.83,174.15 C903.170002,173.609997 903.579998,173.170002 904.06,172.83 C904.540002,172.489998 905.059997,172.32 905.62,172.32 L917.38,172.32 L917.38,176.1 L909.46,176.1 C908.339994,176.1 907.78,176.719994 907.78,177.96 C907.78,179.080006 908.339994,179.64 909.46,179.64 L915.82,179.64 C918.980016,179.64 920.56,181.519981 920.56,185.28 L920.56,207.42 Z M939.22,213 L939.22,192.66 C939.22,191.459994 938.820004,190.86 938.02,190.86 L932.68,190.86 C931.839996,190.86 931.42,191.459994 931.42,192.66 L931.42,213 L923.56,213 L923.56,172.32 L931.42,172.32 L931.42,185.28 C931.42,186.440006 931.839996,187.02 932.68,187.02 L938.02,187.02 C938.820004,187.02 939.22,186.440006 939.22,185.28 L939.22,172.32 L947.08,172.32 L947.08,213 L939.22,213 Z M973.42,207.42 C973.42,209.300009 973.000004,210.699995 972.16,211.62 C971.319996,212.540005 970.460004,213 969.58,213 L954.4,213 C953.279994,213 952.350004,212.520005 951.61,211.56 C950.869996,210.599995 950.5,209.220009 950.5,207.42 L950.5,177.9 C950.5,176.219992 950.889996,174.870005 951.67,173.85 C952.450004,172.829995 953.359995,172.32 954.4,172.32 L969.58,172.32 C970.860006,172.32 971.819997,172.739996 972.46,173.58 C973.100003,174.420004 973.42,175.85999 973.42,177.9 L973.42,207.42 Z M966.88,177.9 C966.88,176.699994 966.460004,176.1 965.62,176.1 L960.58,176.1 C959.739996,176.1 959.32,176.699994 959.32,177.9 L959.32,199.98 C959.32,201.220006 959.739996,201.84 960.58,201.84 L965.62,201.84 C966.460004,201.84 966.88,201.220006 966.88,199.98 L966.88,177.9 Z M1017.52,172.32 L1012.78,213 L1000.06,213 L997.6,192.42 C997.479999,191.099993 997.100003,190.44 996.46,190.44 C995.779997,190.44 995.380001,191.099993 995.26,192.42 L992.92,213 L980.56,213 L975.88,172.32 L984.52,172.32 L986.92,200.22 C987,201.500006 987.419996,202.14 988.18,202.14 C988.820003,202.14 989.199999,201.500006 989.32,200.22 L991.78,172.32 L1004.08,172.32 L1006.42,200.22 C1006.5,201.500006 1006.9,202.14 1007.62,202.14 C1008.26,202.14 1008.64,201.500006 1008.76,200.22 L1011.28,172.32 L1017.52,172.32 Z" transform="translate(-585 -168)"/>
</svg>
